<?xml version="1.0" encoding="utf-8"?>
<!-- Generator: Adobe Illustrator 24.0.3, SVG Export Plug-In . SVG Version: 6.00 Build 0)  -->
<svg version="1.1" id="Livello_1" xmlns="http://www.w3.org/2000/svg" xmlns:xlink="http://www.w3.org/1999/xlink" x="0px" y="0px"
	 viewBox="0 0 283.46 283.46" style="enable-background:new 0 0 283.46 283.46;" xml:space="preserve">
<g>
	<g>
		<path fill="#010045" d="M3.52,129.98c0-31.57-0.02-63.13,0.01-94.7c0.02-14.79,9.81-27.3,24.11-30.82c2.99-0.74,6.08-0.97,9.17-0.97
			c46.89,0,93.78-0.02,140.66,0.01c19.98,0.01,33.36,13.52,33.36,33.56c0,31.67-0.01,63.34,0.02,95c0,3.74-1.38,6.65-4.7,8.36
			c-3.05,1.57-6.2,1.4-9.02-0.65c-2.7-1.96-3.63-4.73-3.62-8.07c0.05-31.46-0.2-62.93,0.18-94.39c0.11-9.34-6.39-16.72-16.61-16.66
			c-46.78,0.26-93.57,0.13-140.36,0.09c-6.29-0.01-11.17,2.21-14.28,7.86c-1.28,2.32-1.66,4.78-1.66,7.41
			c0.03,62.72,0.02,125.44,0.02,188.16c0,8.78,5.19,14.51,13.93,15.35c1.22,0.12,2.46,0.09,3.7,0.09c44.52,0,89.05,0.02,133.57-0.02
			c3.78,0,7.16,0.53,9.37,4.06c3.2,5.12,0.34,11.81-5.6,12.89c-1.3,0.24-2.65,0.34-3.98,0.34c-44.93,0.02-89.87,0.04-134.8,0
			c-17.65-0.02-30.38-10.55-33.16-27.33c-0.3-1.81-0.31-3.68-0.31-5.53C3.51,192.7,3.52,161.34,3.52,129.98z"/>
		<path fill="#010045" d="M279.94,201.91c0,12.65,0.04,25.29-0.01,37.94c-0.07,19.04-13.79,35.64-32.45,39.34c-24.53,4.87-47.84-13.82-48.17-38.97
			c-0.27-20.36-0.16-40.72-0.02-61.08c0.1-14.71,11.73-26.01,26.21-25.86c14.42,0.16,25.52,11.41,25.58,26.11
			c0.07,18.82,0.03,37.63,0.01,56.45c-0.01,5.7-3.59,9.55-8.7,9.46c-5.11-0.09-8.58-3.94-8.58-9.66c-0.02-18.61,0-37.22-0.02-55.83
			c-0.01-5.03-2.92-8.6-7.34-9.14c-5.58-0.68-9.88,3.2-9.89,9.13c-0.05,15.53-0.06,31.05,0.01,46.58c0.02,5.44-0.45,10.91,0.3,16.33
			c1.63,11.84,12.04,20.53,23.66,19.84c12.6-0.75,22.07-10.43,22.1-22.87c0.07-25.71,0.01-51.41,0.03-77.12
			c0-5.09,3.09-8.77,7.64-9.21c5.4-0.52,9.61,3.23,9.63,8.75C279.97,175.39,279.94,188.65,279.94,201.91z"/>
		<path fill="#010045" d="M107,130.15c-19.53,0-39.07-0.03-58.6,0.02c-3.71,0.01-6.92-0.74-9.03-4.14c-3.19-5.16-0.29-11.76,5.71-12.83
			c1.31-0.23,2.65-0.33,3.98-0.33c38.76-0.02,77.52-0.01,116.28-0.02c3.97,0,7.57,0.61,9.79,4.47c2.99,5.23-0.17,11.85-6.14,12.67
			c-1.32,0.18-2.67,0.15-4,0.15C145.66,130.15,126.33,130.15,107,130.15z"/>
		<path fill="#333333" d="M106.87,176.26c-19.53,0-39.06-0.01-58.59,0.01c-4.37,0.01-7.88-1.32-9.64-5.66c-1.8-4.44,0.8-9.76,5.39-11.1
			c1.7-0.5,3.43-0.55,5.19-0.55c38.65,0.01,77.3,0.01,115.95,0.01c1.54,0,3.06,0.01,4.59,0.4c3.89,1,6.54,4.29,6.54,8.25
			c0,3.95-2.66,7.24-6.55,8.24c-1.52,0.39-3.05,0.4-4.59,0.4C145.72,176.26,126.29,176.26,106.87,176.26z"/>
		<path fill="#010045" d="M78.72,66.9c10.38,0,20.75-0.01,31.13,0c3.9,0.01,6.69,1.86,8.22,5.4c1.41,3.25,0.62,6.23-1.58,8.89
			c-1.86,2.25-4.42,2.95-7.15,2.96c-20.65,0.04-41.3,0.09-61.95-0.02c-5.76-0.03-9.43-3.8-9.31-8.89c0.12-4.96,3.83-8.29,9.52-8.33
			c10.38-0.06,20.75-0.02,31.13-0.02C78.72,66.9,78.72,66.9,78.72,66.9z"/>
	</g>
</g>
</svg>
