<?xml version="1.0" encoding="utf-8"?>
<!-- Generator: Adobe Illustrator 24.0.3, SVG Export Plug-In . SVG Version: 6.00 Build 0)  -->
<svg version="1.1" id="Livello_1" xmlns="http://www.w3.org/2000/svg" xmlns:xlink="http://www.w3.org/1999/xlink" x="0px" y="0px"
	 viewBox="0 0 283.46 283.46" style="enable-background:new 0 0 283.46 283.46;" xml:space="preserve">
<g>
	<g>
		<path fill="#010045" d="M143.12,279.95c-17.69,0-35.37,0.01-53.06,0c-16.21-0.01-26.22-9.73-27.36-25.84c-1.55-21.94-3.52-43.85-5.29-65.77
			c-1.74-21.51-3.45-43.03-5.18-64.54c-1.03-12.81-2.09-25.61-3.06-38.42c-0.12-1.63-0.78-2.13-2.3-2.07
			c-1.74,0.06-3.5,0.03-5.24-0.07C33.05,82.7,27,74.47,29.4,66.24c2.01-6.89,4.16-13.77,6.83-20.43c2.48-6.18,7.44-9.94,14.21-10.18
			c9.45-0.33,18.91-0.17,28.37-0.2c7.09-0.02,14.19-0.11,21.28,0.05c2.51,0.06,3.16-0.81,3.08-3.17c-0.16-4.42-0.08-8.84-0.04-13.26
			c0.07-8.75,6.32-15.35,15.08-15.44c15.73-0.16,31.46-0.16,47.19,0.01c8.73,0.09,14.98,6.78,15.03,15.52
			c0.03,4.42,0.14,8.85-0.05,13.26c-0.11,2.48,0.73,3.1,3.13,3.08c15.11-0.1,30.23,0.2,45.34-0.14c10.01-0.22,17.34,4.6,19.9,14.28
			c1.36,5.15,3.38,10.12,5.02,15.2c3.09,9.54-2.89,18.2-12.9,18.41c-2.71,0.06-3.55,0.73-3.76,3.52
			c-2.11,27.57-4.38,55.12-6.62,82.67c-2.17,26.63-4.36,53.27-6.54,79.9c-0.2,2.46-0.33,4.92-0.6,7.37
			c-1.56,14.1-11.65,23.19-25.95,23.24C179.31,280,161.21,279.95,143.12,279.95z M143.14,83.32c-24.98,0-49.96,0.01-74.94-0.01
			c-1.75,0-3.12-0.2-2.89,2.48c1.77,20.58,3.4,41.17,5.07,61.76c1.79,22.02,3.57,44.04,5.36,66.06c1.09,13.52,2.19,27.04,3.25,40.56
			c0.22,2.87,0.97,5.44,3.22,7.41c2.26,1.98,5,2.21,7.81,2.21c35.47,0,70.94,0,106.4,0c0.51,0,1.03,0.02,1.54-0.01
			c5.71-0.35,8.81-3.31,9.29-9.04c2.21-26.73,4.42-53.46,6.58-80.19c2.37-29.29,4.64-58.6,7.11-87.88c0.24-2.87-0.42-3.42-3.14-3.41
			C192.9,83.37,168.02,83.32,143.14,83.32z M237.4,67.04c-1.42-4.31-2.88-8.15-3.93-12.1c-0.71-2.69-2.06-3.37-4.77-3.37
			c-57.97,0.09-115.94,0.06-173.91,0.07c-0.72,0-1.44,0.03-2.16,0.01c-0.97-0.03-1.5,0.45-1.8,1.34c-1.53,4.63-3.09,9.24-4.7,14.06
			C110.03,67.04,173.54,67.04,237.4,67.04z M141.98,19.71c-6.68,0-13.36,0.05-20.04-0.03c-1.75-0.02-2.64,0.3-2.57,2.34
			c0.14,3.8,0.08,7.6,0.02,11.41c-0.02,1.42,0.44,2.02,1.94,2.02c13.57-0.04,27.13-0.04,40.7,0c1.63,0.01,2.15-0.63,2.12-2.19
			c-0.07-3.6-0.12-7.2,0.02-10.79c0.09-2.13-0.59-2.85-2.77-2.8C154.93,19.79,148.45,19.71,141.98,19.71z"/>
		<path fill="#010045" d="M110.08,245.5c0.33,5.44-2.86,9.39-7.66,9.61c-4.71,0.21-8.13-3.11-8.45-8.62c-1.01-17.03-1.9-34.07-2.83-51.1
			c-1.57-28.63-3.15-57.26-4.71-85.89c-0.15-2.67-0.29-5.34-0.34-8.01c-0.09-4.81,3.28-8.41,7.85-8.5c4.56-0.09,8.04,3.32,8.31,8.13
			c0.98,17.75,1.98,35.5,2.94,53.26C106.82,184.75,108.45,215.12,110.08,245.5z"/>
		<path fill="#010045" d="M177.52,174.07c1.25-24.32,2.48-48.64,3.75-72.97c0.26-4.96,4-8.41,8.64-8.11c4.57,0.29,7.78,3.94,7.54,8.8
			c-1.41,27.71-2.87,55.42-4.32,83.12c-1.07,20.52-2.15,41.05-3.21,61.57c-0.27,5.3-3.72,8.83-8.44,8.62
			c-4.74-0.21-7.94-3.92-7.68-9.3c1.08-21.86,2.24-43.72,3.38-65.58c0.11-2.05,0.24-4.1,0.36-6.15
			C177.54,174.08,177.53,174.07,177.52,174.07z"/>
		<path fill="#010045" d="M133.73,173.8c0-24.04-0.02-48.08,0.01-72.12c0.01-6.35,5.3-10.2,11.04-8.1c2.84,1.04,4.47,3.17,5.02,6.11
			c0.15,0.8,0.11,1.64,0.11,2.46c0,47.98,0.01,95.95,0,143.93c0,4.42-2.1,7.62-5.56,8.61c-5.46,1.57-10.54-2.11-10.6-7.85
			c-0.09-8.42-0.02-16.85-0.02-25.27C133.73,205.64,133.73,189.72,133.73,173.8z"/>
	</g>
</g>
</svg>
