<?xml version="1.0" encoding="utf-8"?>
<!-- Generator: Adobe Illustrator 24.0.3, SVG Export Plug-In . SVG Version: 6.00 Build 0)  -->
<svg version="1.1" id="Livello_1" xmlns="http://www.w3.org/2000/svg" xmlns:xlink="http://www.w3.org/1999/xlink" x="0px" y="0px"
	 viewBox="0 0 283.46 283.46" style="enable-background:new 0 0 283.46 283.46;" xml:space="preserve">
<g>
	<g>
		<path fill="#010045" d="M280.03,57.64c0.11,1.66-0.7,3.31-1.87,4.79c-0.7,0.89-1.51,1.68-2.31,2.48c-62.72,62.71-125.44,125.4-188.14,188.14
			c-2.1,2.1-4.42,3.53-7.23,4.46c-21.56,7.12-43.08,14.32-64.62,21.49c-1.66,0.55-3.31,1.16-5.11,0.93
			c-5.49-0.71-8.6-5.47-6.85-10.78c7.48-22.62,15.04-45.22,22.55-67.83c0.6-1.81,1.62-3.28,2.96-4.62
			C92.87,133.28,156.32,69.84,219.78,6.42c3.89-3.88,8.66-3.92,12.53-0.05c14.87,14.81,29.7,29.66,44.54,44.51
			C278.63,52.66,280.04,54.65,280.03,57.64z M80.27,237.38c0.65-0.61,1.27-1.15,1.85-1.73c47.29-47.28,94.57-94.57,141.93-141.79
			c1.86-1.86,1.42-2.74-0.16-4.3c-9.81-9.69-19.53-19.46-29.28-29.21c-2.92-2.92-2.93-2.92-5.75-0.1
			c-46.78,46.77-93.57,93.54-140.35,140.31c-0.44,0.44-0.83,0.93-1.32,1.3c-1.2,0.91-1.06,1.61-0.01,2.65
			c10.59,10.51,21.12,21.07,31.68,31.61C79.29,236.55,79.77,236.93,80.27,237.38z M237.61,80.1c0.48-0.44,0.88-0.77,1.24-1.13
			c6.77-6.76,13.51-13.56,20.33-20.26c1.15-1.13,0.87-1.72-0.1-2.68c-10.58-10.52-21.13-21.07-31.65-31.65
			c-1-1.01-1.59-1.16-2.68-0.05c-6.71,6.82-13.48,13.58-20.3,20.3c-1.09,1.08-0.96,1.71,0.05,2.72
			c10.58,10.52,21.12,21.08,31.68,31.62C236.59,79.38,237.1,79.71,237.61,80.1z M24.32,259.09c13.87-4.62,27.15-9.05,40.19-13.39
			c-8.99-8.95-17.87-17.78-26.82-26.68C33.37,231.95,28.96,245.17,24.32,259.09z"/>
		<path fill="#010045" d="M199.82,91.63c-0.01,2.95-1.5,4.98-3.37,6.84c-6.7,6.68-13.39,13.38-20.08,20.07c-29.75,29.74-59.51,59.47-89.23,89.24
			c-2.31,2.31-4.76,3.82-8.17,3.28c-5.56-0.88-8.55-6.82-5.77-11.68c0.65-1.14,1.57-2.16,2.51-3.1
			c36.43-36.45,72.88-72.87,109.3-109.33c2.61-2.61,5.46-3.89,9.16-2.79c3.11,0.92,4.65,3.19,5.52,6.09
			C199.82,90.75,199.79,91.28,199.82,91.63z"/>
	</g>
</g>
</svg>
