<?xml version="1.0" encoding="utf-8"?>
<!-- Generator: Adobe Illustrator 24.0.3, SVG Export Plug-In . SVG Version: 6.00 Build 0)  -->
<svg version="1.1" id="Livello_1" xmlns="http://www.w3.org/2000/svg" xmlns:xlink="http://www.w3.org/1999/xlink" x="0px" y="0px"
	 viewBox="0 0 283.46 283.46" style="enable-background:new 0 0 283.46 283.46;" xml:space="preserve">
<style type="text/css">
	.st0{fill-rule:evenodd;clip-rule:evenodd;fill:#D9D9D9;}
	.st1{fill:none;stroke:#0E2149;stroke-width:1.5142;stroke-miterlimit:22.9256;}
	.st2{fill-rule:evenodd;clip-rule:evenodd;fill:#FFFFFF;}
	.st3{fill:none;stroke:#0E2149;stroke-width:0.3786;stroke-miterlimit:22.9256;}
	.st4{fill:#0E2149;}
	.st5{fill-rule:evenodd;clip-rule:evenodd;fill:#0E2149;}
	.st6{fill:#FFFFFF;}
</style>
<g>
	<ellipse class="st0" cx="141.73" cy="141.73" rx="140.09" ry="95.6"/>
	<ellipse class="st1" cx="141.73" cy="141.73" rx="140.09" ry="95.6"/>
	<path class="st2" d="M185.13,60.56v44.9h-7.29l-0.26-1.64c-0.95-6.12-2.69-12.81-6.14-18.04c-3.09-4.68-7.45-8.03-12.47-10.42
		c-5.36-2.56-10.98-3.93-16.91-3.93c-5.83,0-11.37,1.38-15.94,5.11c-3.51,2.87-6.07,6.46-6.07,11.12c0,3.35,1.47,6.15,3.76,8.54
		c1.17,1.22,2.55,2.32,3.91,3.32c1.97,1.44,4.04,2.75,6.14,4c6.04,3.59,12.45,6.77,18.8,9.76c5.39,2.53,10.77,5.14,16.04,7.93
		c3.41,1.81,6.95,3.74,10.13,5.93c4.56,3.14,8.5,7.04,11.28,11.85c2.59,4.49,4.01,9.34,4.01,14.52c0,10.22-4.83,18.34-12.64,24.73
		c-9.13,7.47-20.31,10.2-31.93,10.2c-3.81,0-7.61-0.29-11.38-0.83c-1.64-0.23-3.33-0.65-4.93-1.04c-2.72-0.67-5.43-1.41-8.13-2.18
		c-2.59-0.74-5.21-1.46-7.84-2.05c-1.13-0.26-2.8-0.65-3.96-0.65c-0.95,0-1.93,0.17-2.66,0.82c-0.82,0.73-1.35,3.29-1.53,4.32
		l-0.28,1.61h-7.26v-44.55h7.21l0.32,1.55c1.22,5.97,3.2,13.32,6.71,18.39c3.1,4.47,7.77,7.62,12.64,9.88c5.98,2.78,12.4,4,18.98,4
		c6.48,0,13.32-1.19,18.51-5.34c3.91-3.12,6.49-7.02,6.49-12.12c0-2.82-0.99-5.44-2.44-7.82c-1.91-3.13-4.97-5.67-7.98-7.7
		c-0.85-0.57-1.77-1.1-2.66-1.6c-1.46-0.82-2.94-1.61-4.42-2.39c-4.61-2.42-9.28-4.74-13.95-7.04c-5.02-2.47-10.03-5-14.93-7.7
		c-3.39-1.86-6.83-3.83-10.01-6.03c-4.58-3.16-8.73-7.02-11.69-11.77c-2.76-4.42-4.08-9.31-4.08-14.52c0-9.68,4.5-17.39,11.88-23.47
		c8.49-7,18.81-9.67,29.68-9.67c8.09,0,16.05,1.83,23.57,4.76c1.73,0.67,5.31,2.05,7.16,2.05c1.06,0,2.18-0.2,3.01-0.89
		c1.02-0.85,1.71-3.22,2.02-4.44l0.37-1.47H185.13z"/>
	<path class="st3" d="M185.13,60.56v44.9h-7.29l-0.26-1.64c-0.95-6.12-2.69-12.81-6.14-18.04c-3.09-4.68-7.45-8.03-12.47-10.42
		c-5.36-2.56-10.98-3.93-16.91-3.93c-5.83,0-11.37,1.38-15.94,5.11c-3.51,2.87-6.07,6.46-6.07,11.12c0,3.35,1.47,6.15,3.76,8.54
		c1.17,1.22,2.55,2.32,3.91,3.32c1.97,1.44,4.04,2.75,6.14,4c6.04,3.59,12.45,6.77,18.8,9.76c5.39,2.53,10.77,5.14,16.04,7.93
		c3.41,1.81,6.95,3.74,10.13,5.93c4.56,3.14,8.5,7.04,11.28,11.85c2.59,4.49,4.01,9.34,4.01,14.52c0,10.22-4.83,18.34-12.64,24.73
		c-9.13,7.47-20.31,10.2-31.93,10.2c-3.81,0-7.61-0.29-11.38-0.83c-1.64-0.23-3.33-0.65-4.93-1.04c-2.72-0.67-5.43-1.41-8.13-2.18
		c-2.59-0.74-5.21-1.46-7.84-2.05c-1.13-0.26-2.8-0.65-3.96-0.65c-0.95,0-1.93,0.17-2.66,0.82c-0.82,0.73-1.35,3.29-1.53,4.32
		l-0.28,1.61h-7.26v-44.55h7.21l0.32,1.55c1.22,5.97,3.2,13.32,6.71,18.39c3.1,4.47,7.77,7.62,12.64,9.88c5.98,2.78,12.4,4,18.98,4
		c6.48,0,13.32-1.19,18.51-5.34c3.91-3.12,6.49-7.02,6.49-12.12c0-2.82-0.99-5.44-2.44-7.82c-1.91-3.13-4.97-5.67-7.98-7.7
		c-0.85-0.57-1.77-1.1-2.66-1.6c-1.46-0.82-2.94-1.61-4.42-2.39c-4.61-2.42-9.28-4.74-13.95-7.04c-5.02-2.47-10.03-5-14.93-7.7
		c-3.39-1.86-6.83-3.83-10.01-6.03c-4.58-3.16-8.73-7.02-11.69-11.77c-2.76-4.42-4.08-9.31-4.08-14.52c0-9.68,4.5-17.39,11.88-23.47
		c8.49-7,18.81-9.67,29.68-9.67c8.09,0,16.05,1.83,23.57,4.76c1.73,0.67,5.31,2.05,7.16,2.05c1.06,0,2.18-0.2,3.01-0.89
		c1.02-0.85,1.71-3.22,2.02-4.44l0.37-1.47H185.13z"/>
	<path class="st4" d="M183.18,62.51v41.02h-3.68c-1.23-7.88-3.37-14.15-6.44-18.81c-3.1-4.69-7.53-8.39-13.25-11.11
		c-5.72-2.75-11.62-4.12-17.75-4.12c-6.92,0-12.64,1.85-17.17,5.55c-4.53,3.7-6.78,7.91-6.78,12.63c0,3.61,1.43,6.93,4.29,9.88
		c4.12,4.39,13.93,10.21,29.44,17.49c12.64,5.94,21.29,10.51,25.89,13.7c4.63,3.16,8.21,6.93,10.7,11.22
		c2.49,4.33,3.75,8.84,3.75,13.55c0,8.99-3.99,16.72-11.92,23.23c-7.97,6.51-18.19,9.76-30.7,9.76c-3.95,0-7.63-0.27-11.11-0.81
		c-2.04-0.27-6.34-1.34-12.81-3.16c-6.47-1.85-10.6-2.78-12.33-2.78c-1.67,0-2.96,0.45-3.95,1.31c-0.95,0.87-1.67,2.69-2.15,5.43
		h-3.68v-40.66h3.68c1.74,8.51,4.09,14.87,7.02,19.11c2.93,4.21,7.39,7.73,13.42,10.54c6,2.78,12.61,4.18,19.79,4.18
		c8.31,0,14.89-1.91,19.73-5.76c4.8-3.85,7.22-8.39,7.22-13.64c0-2.93-0.92-5.85-2.73-8.84c-1.84-2.99-4.7-5.73-8.55-8.3
		c-2.59-1.76-9.68-5.46-21.26-11.17c-11.58-5.67-19.79-10.21-24.7-13.58c-4.91-3.4-8.59-7.13-11.14-11.19
		c-2.52-4.09-3.78-8.6-3.78-13.49c0-8.51,3.71-15.82,11.17-21.97c7.46-6.15,16.93-9.22,28.45-9.22c7.19,0,14.82,1.52,22.86,4.63
		c3.71,1.46,6.37,2.18,7.87,2.18c1.74,0,3.17-0.45,4.26-1.34c1.09-0.93,1.98-2.75,2.66-5.46H183.18z"/>
	<path class="st3" d="M183.18,62.51v41.02h-3.68c-1.23-7.88-3.37-14.15-6.44-18.81c-3.1-4.69-7.53-8.39-13.25-11.11
		c-5.72-2.75-11.62-4.12-17.75-4.12c-6.92,0-12.64,1.85-17.17,5.55c-4.53,3.7-6.78,7.91-6.78,12.63c0,3.61,1.43,6.93,4.29,9.88
		c4.12,4.39,13.93,10.21,29.44,17.49c12.64,5.94,21.29,10.51,25.89,13.7c4.63,3.16,8.21,6.93,10.7,11.22
		c2.49,4.33,3.75,8.84,3.75,13.55c0,8.99-3.99,16.72-11.92,23.23c-7.97,6.51-18.19,9.76-30.7,9.76c-3.95,0-7.63-0.27-11.11-0.81
		c-2.04-0.27-6.34-1.34-12.81-3.16c-6.47-1.85-10.6-2.78-12.33-2.78c-1.67,0-2.96,0.45-3.95,1.31c-0.95,0.87-1.67,2.69-2.15,5.43
		h-3.68v-40.66h3.68c1.74,8.51,4.09,14.87,7.02,19.11c2.93,4.21,7.39,7.73,13.42,10.54c6,2.78,12.61,4.18,19.79,4.18
		c8.31,0,14.89-1.91,19.73-5.76c4.8-3.85,7.22-8.39,7.22-13.64c0-2.93-0.92-5.85-2.73-8.84c-1.84-2.99-4.7-5.73-8.55-8.3
		c-2.59-1.76-9.68-5.46-21.26-11.17c-11.58-5.67-19.79-10.21-24.7-13.58c-4.91-3.4-8.59-7.13-11.14-11.19
		c-2.52-4.09-3.78-8.6-3.78-13.49c0-8.51,3.71-15.82,11.17-21.97c7.46-6.15,16.93-9.22,28.45-9.22c7.19,0,14.82,1.52,22.86,4.63
		c3.71,1.46,6.37,2.18,7.87,2.18c1.74,0,3.17-0.45,4.26-1.34c1.09-0.93,1.98-2.75,2.66-5.46H183.18z"/>
	<path class="st4" d="M235.01,191.62l0.13,4.66h-0.46c-0.21-1.17-0.74-2.11-1.58-2.82c-0.84-0.71-1.75-1.07-2.73-1.07
		c-0.76,0-1.36,0.19-1.8,0.56c-0.44,0.37-0.66,0.81-0.66,1.29c0,0.31,0.08,0.58,0.24,0.82c0.21,0.32,0.56,0.64,1.03,0.96
		c0.35,0.23,1.15,0.63,2.42,1.21c1.77,0.81,2.96,1.56,3.57,2.28c0.61,0.71,0.92,1.53,0.92,2.45c0,1.17-0.49,2.17-1.47,3.01
		c-0.98,0.84-2.23,1.26-3.75,1.26c-0.47,0-0.93-0.05-1.35-0.13c-0.42-0.09-0.95-0.26-1.59-0.51c-0.36-0.14-0.65-0.2-0.88-0.2
		c-0.19,0-0.4,0.07-0.61,0.2c-0.22,0.14-0.39,0.35-0.52,0.63h-0.41v-5.27h0.41c0.33,1.48,0.95,2.61,1.89,3.39
		c0.93,0.78,1.93,1.17,3.01,1.17c0.83,0,1.49-0.21,1.99-0.63c0.49-0.42,0.74-0.91,0.74-1.46c0-0.33-0.1-0.65-0.28-0.96
		c-0.19-0.31-0.47-0.6-0.86-0.88c-0.39-0.28-1.07-0.64-2.05-1.09c-1.37-0.63-2.36-1.16-2.96-1.6c-0.6-0.44-1.06-0.93-1.39-1.47
		c-0.32-0.54-0.49-1.14-0.49-1.79c0-1.11,0.44-2.06,1.33-2.84c0.89-0.78,2-1.17,3.34-1.17c0.49,0,0.96,0.05,1.42,0.16
		c0.35,0.08,0.77,0.24,1.27,0.46c0.5,0.22,0.85,0.33,1.05,0.33c0.19,0,0.35-0.06,0.46-0.17c0.11-0.11,0.22-0.37,0.31-0.79H235.01z
		 M204.6,192.74v5.69h0.3c0.96,0,1.65-0.28,2.08-0.83c0.43-0.56,0.7-1.38,0.82-2.46h0.42v7.31h-0.42c-0.09-0.8-0.28-1.45-0.56-1.96
		c-0.29-0.51-0.62-0.85-1-1.03c-0.38-0.17-0.93-0.26-1.64-0.26v3.93c0,0.77,0.03,1.24,0.11,1.41c0.07,0.17,0.2,0.31,0.4,0.42
		c0.19,0.11,0.5,0.17,0.93,0.17h0.9c1.41,0,2.54-0.3,3.39-0.91c0.85-0.6,1.46-1.52,1.83-2.76h0.41l-0.68,4.44h-13.04v-0.38h0.5
		c0.44,0,0.79-0.07,1.06-0.22c0.19-0.09,0.34-0.26,0.44-0.5c0.08-0.16,0.13-0.59,0.13-1.3v-9.19c0-0.63-0.02-1.02-0.06-1.16
		c-0.07-0.24-0.21-0.43-0.41-0.56c-0.28-0.19-0.67-0.29-1.16-0.29h-0.5v-0.38h12.63v4.13h-0.42c-0.22-1.01-0.52-1.73-0.91-2.17
		c-0.39-0.44-0.94-0.76-1.65-0.97c-0.41-0.13-1.19-0.19-2.34-0.19H204.6z M186.43,191.62v4.84H186c-0.33-1.26-0.93-2.23-1.83-2.9
		c-0.89-0.67-1.9-1.01-3.03-1.01c-0.94,0-1.8,0.25-2.59,0.75c-0.79,0.5-1.36,1.16-1.72,1.97c-0.47,1.04-0.7,2.19-0.7,3.46
		c0,1.25,0.17,2.39,0.51,3.41c0.34,1.03,0.87,1.8,1.6,2.33c0.73,0.53,1.67,0.79,2.83,0.79c0.95,0,1.82-0.19,2.61-0.58
		c0.79-0.38,1.62-1.04,2.5-1.99v1.21c-0.85,0.82-1.73,1.41-2.64,1.78c-0.92,0.37-1.99,0.55-3.21,0.55c-1.61,0-3.04-0.3-4.29-0.9
		c-1.25-0.6-2.21-1.46-2.89-2.57c-0.68-1.12-1.02-2.31-1.02-3.58c0-1.33,0.38-2.59,1.13-3.79c0.75-1.2,1.77-2.12,3.05-2.78
		c1.28-0.66,2.64-0.99,4.08-0.99c1.06,0,2.18,0.21,3.36,0.64c0.68,0.25,1.12,0.37,1.3,0.37c0.24,0,0.44-0.08,0.62-0.24
		c0.17-0.16,0.29-0.42,0.34-0.77H186.43z M159.98,205.52v0.38h-7.89v-0.38h0.5c0.44,0,0.79-0.07,1.06-0.22
		c0.19-0.09,0.34-0.26,0.44-0.5c0.08-0.16,0.13-0.59,0.13-1.3v-9.19c0-0.71-0.04-1.16-0.13-1.34c-0.08-0.18-0.24-0.33-0.49-0.47
		c-0.25-0.13-0.58-0.2-1.01-0.2h-0.5v-0.38h7.89v0.38h-0.5c-0.44,0-0.79,0.07-1.06,0.21c-0.19,0.1-0.35,0.26-0.46,0.5
		c-0.08,0.17-0.12,0.6-0.12,1.3v9.19c0,0.71,0.04,1.16,0.13,1.34c0.09,0.18,0.25,0.33,0.5,0.47c0.25,0.14,0.58,0.2,1.01,0.2H159.98z
		 M140.68,191.93v0.38c-0.55,0.08-1.04,0.35-1.47,0.81c-0.31,0.34-0.77,1.15-1.39,2.42l-5.2,10.67h-0.36l-5.18-11.1
		c-0.62-1.34-1.04-2.13-1.25-2.36c-0.21-0.24-0.61-0.38-1.2-0.44v-0.38h7.23v0.38h-0.24c-0.65,0-1.1,0.07-1.34,0.23
		c-0.17,0.1-0.25,0.25-0.25,0.45c0,0.12,0.03,0.27,0.09,0.44c0.06,0.17,0.26,0.62,0.6,1.35l3.22,6.95l2.98-6.19
		c0.36-0.75,0.58-1.25,0.66-1.5c0.08-0.25,0.12-0.47,0.12-0.65c0-0.2-0.06-0.39-0.18-0.54c-0.12-0.16-0.29-0.28-0.52-0.36
		c-0.32-0.12-0.74-0.18-1.27-0.18v-0.38H140.68z M104.59,192.68v6.12h0.63c1.03,0,1.8-0.08,2.31-0.26c0.51-0.18,0.92-0.49,1.21-0.95
		c0.29-0.46,0.44-1.05,0.44-1.79c0-1.07-0.27-1.85-0.81-2.36c-0.54-0.51-1.4-0.76-2.6-0.76H104.59z M104.59,199.53v3.92
		c0,0.76,0.05,1.23,0.15,1.42c0.1,0.2,0.28,0.36,0.53,0.47c0.25,0.12,0.73,0.18,1.42,0.18v0.38h-7.73v-0.38
		c0.7,0,1.17-0.06,1.42-0.18c0.25-0.12,0.42-0.27,0.52-0.47c0.1-0.19,0.15-0.66,0.15-1.42v-9.06c0-0.76-0.05-1.23-0.15-1.43
		c-0.1-0.2-0.28-0.35-0.53-0.47c-0.25-0.12-0.72-0.18-1.41-0.18v-0.38h7.01c1.83,0,3.16,0.12,4.01,0.35
		c0.84,0.23,1.53,0.66,2.07,1.29c0.53,0.63,0.8,1.36,0.8,2.21c0,1.03-0.4,1.88-1.2,2.56c-0.51,0.43-1.23,0.75-2.15,0.96l3.63,4.73
		c0.47,0.61,0.81,0.99,1.01,1.14c0.31,0.21,0.66,0.33,1.06,0.35v0.38h-4.75l-4.86-6.37H104.59z M78.83,192.74v5.69h0.3
		c0.96,0,1.65-0.28,2.08-0.83c0.43-0.56,0.7-1.38,0.82-2.46h0.42v7.31h-0.42c-0.09-0.8-0.28-1.45-0.56-1.96
		c-0.29-0.51-0.62-0.85-1-1.03c-0.38-0.17-0.93-0.26-1.64-0.26v3.93c0,0.77,0.03,1.24,0.11,1.41c0.07,0.17,0.2,0.31,0.4,0.42
		c0.19,0.11,0.5,0.17,0.93,0.17h0.9c1.41,0,2.54-0.3,3.39-0.91c0.85-0.6,1.46-1.52,1.83-2.76h0.41l-0.68,4.44H73.07v-0.38h0.5
		c0.44,0,0.79-0.07,1.06-0.22c0.19-0.09,0.34-0.26,0.44-0.5c0.08-0.16,0.13-0.59,0.13-1.3v-9.19c0-0.63-0.02-1.02-0.06-1.16
		c-0.07-0.24-0.21-0.43-0.41-0.56c-0.28-0.19-0.67-0.29-1.16-0.29h-0.5v-0.38h12.63v4.13h-0.42c-0.22-1.01-0.52-1.73-0.91-2.17
		c-0.39-0.44-0.94-0.76-1.65-0.97c-0.41-0.13-1.19-0.19-2.34-0.19H78.83z M59.93,191.62l0.13,4.66H59.6
		c-0.21-1.17-0.74-2.11-1.58-2.82c-0.84-0.71-1.75-1.07-2.73-1.07c-0.76,0-1.36,0.19-1.8,0.56c-0.44,0.37-0.66,0.81-0.66,1.29
		c0,0.31,0.08,0.58,0.24,0.82c0.21,0.32,0.56,0.64,1.03,0.96c0.35,0.23,1.15,0.63,2.42,1.21c1.77,0.81,2.96,1.56,3.57,2.28
		c0.61,0.71,0.92,1.53,0.92,2.45c0,1.17-0.49,2.17-1.47,3.01c-0.98,0.84-2.23,1.26-3.75,1.26c-0.47,0-0.93-0.05-1.35-0.13
		c-0.42-0.09-0.95-0.26-1.59-0.51c-0.36-0.14-0.65-0.2-0.88-0.2c-0.19,0-0.4,0.07-0.61,0.2c-0.22,0.14-0.39,0.35-0.52,0.63h-0.41
		v-5.27h0.41c0.33,1.48,0.95,2.61,1.89,3.39c0.93,0.78,1.93,1.17,3.01,1.17c0.83,0,1.49-0.21,1.99-0.63
		c0.49-0.42,0.74-0.91,0.74-1.46c0-0.33-0.09-0.65-0.28-0.96c-0.19-0.31-0.47-0.6-0.86-0.88c-0.39-0.28-1.07-0.64-2.05-1.09
		c-1.37-0.63-2.36-1.16-2.96-1.6c-0.6-0.44-1.06-0.93-1.39-1.47c-0.32-0.54-0.49-1.14-0.49-1.79c0-1.11,0.44-2.06,1.33-2.84
		c0.89-0.78,2-1.17,3.34-1.17c0.49,0,0.96,0.05,1.42,0.16c0.35,0.08,0.77,0.24,1.27,0.46c0.5,0.22,0.85,0.33,1.05,0.33
		c0.19,0,0.35-0.06,0.46-0.17c0.11-0.11,0.22-0.37,0.31-0.79H59.93z"/>
	<path class="st5" d="M79.21,86.28v76.1c2.13,0.51,4.28,0.95,6.46,1.26c1.88,0.27,3.81,0.46,5.71,0.46c9.59,0,17-3.9,22.74-10.65
		c7.05-8.28,9.13-18.99,9.13-29.16c0-10.16-2.06-20.94-9.13-29.2c-5.87-6.86-13.48-10.58-23.21-10.58
		C86.98,84.52,82.97,85.27,79.21,86.28z M54.33,170.08v-3.77h3.81c2.99,0,5.31-0.96,6.74-3.35c0.54-0.9,0.78-2.35,0.92-3.35
		c0.28-2.04,0.34-4.17,0.34-6.23V94.82c0-2.23-0.07-8.35-1.56-10.23c-1.54-1.94-3.82-2.67-6.43-2.67h-3.81v-3.79h34.16
		c9.05,0,20.25,0.8,28.36,4.69c7.22,3.46,12.23,9.19,15.75,15.67c4.27,7.86,5.92,16.47,5.92,25.15c0,11.48-2.85,22.63-10.56,32.01
		c-8.73,10.61-21.8,14.44-36.21,14.44H54.33z"/>
	<path class="st3" d="M79.21,86.28v76.1c2.13,0.51,4.28,0.95,6.46,1.26c1.88,0.27,3.81,0.46,5.71,0.46c9.59,0,17-3.9,22.74-10.65
		c7.05-8.28,9.13-18.99,9.13-29.16c0-10.16-2.06-20.94-9.13-29.2c-5.87-6.86-13.48-10.58-23.21-10.58
		C86.98,84.52,82.97,85.27,79.21,86.28z M54.33,170.08v-3.77h3.81c2.99,0,5.31-0.96,6.74-3.35c0.54-0.9,0.78-2.35,0.92-3.35
		c0.28-2.04,0.34-4.17,0.34-6.23V94.82c0-2.23-0.07-8.35-1.56-10.23c-1.54-1.94-3.82-2.67-6.43-2.67h-3.81v-3.79h34.16
		c9.05,0,20.25,0.8,28.36,4.69c7.22,3.46,12.23,9.19,15.75,15.67c4.27,7.86,5.92,16.47,5.92,25.15c0,11.48-2.85,22.63-10.56,32.01
		c-8.73,10.61-21.8,14.44-36.21,14.44H54.33z"/>
	<path class="st6" d="M78.48,162.88c5.13,1.25,9.43,1.87,12.9,1.87c9.37,0,17.14-3.63,23.32-10.91c6.18-7.26,9.28-17.11,9.28-29.55
		c0-12.5-3.1-22.38-9.28-29.59c-6.18-7.23-14.1-10.84-23.8-10.84c-3.64,0-7.77,0.64-12.42,1.94V162.88z M55.06,169.43v-2.46h3.08
		c3.47,0,5.93-1.23,7.38-3.7c0.89-1.46,1.34-4.77,1.34-9.88V94.82c0-5.66-0.58-9.2-1.7-10.61c-1.57-1.96-3.93-2.94-7.03-2.94h-3.08
		v-2.49h33.43c12.26,0,21.6,1.55,28.01,4.61c6.39,3.08,11.54,8.21,15.44,15.38c3.89,7.19,5.85,15.47,5.85,24.87
		c0,12.62-3.47,23.16-10.42,31.62c-7.79,9.45-19.68,14.17-35.62,14.17H55.06z"/>
	<path class="st3" d="M78.48,162.88c5.13,1.25,9.43,1.87,12.9,1.87c9.37,0,17.14-3.63,23.32-10.91c6.18-7.26,9.28-17.11,9.28-29.55
		c0-12.5-3.1-22.38-9.28-29.59c-6.18-7.23-14.1-10.84-23.8-10.84c-3.64,0-7.77,0.64-12.42,1.94V162.88z M55.06,169.43v-2.46h3.08
		c3.47,0,5.93-1.23,7.38-3.7c0.89-1.46,1.34-4.77,1.34-9.88V94.82c0-5.66-0.58-9.2-1.7-10.61c-1.57-1.96-3.93-2.94-7.03-2.94h-3.08
		v-2.49h33.43c12.26,0,21.6,1.55,28.01,4.61c6.39,3.08,11.54,8.21,15.44,15.38c3.89,7.19,5.85,15.47,5.85,24.87
		c0,12.62-3.47,23.16-10.42,31.62c-7.79,9.45-19.68,14.17-35.62,14.17H55.06z"/>
	<path class="st5" d="M206.58,96.25l-29.39,73.18h-2.97l-29.45-73.19v56.84c0,2.17,0.04,8.22,1.45,10.06
		c1.45,1.9,3.76,2.52,6.26,2.52H156v3.77h-29.1v-3.77h3.53c2.85,0,5.13-0.87,6.52-3.15c0.52-0.86,0.75-2.31,0.88-3.27
		c0.26-2.03,0.31-4.13,0.31-6.17V93.85c0-1.7-0.06-3.42-0.28-5.11c-0.15-1.1-0.38-2.31-0.83-3.35c-0.54-1.25-1.49-2.2-2.74-2.93
		c-1.75-1.03-4.63-1.19-6.66-1.19h-0.73v-3.79h23.74l28.3,69.66l27.85-69.66h23.74v3.79h-3.49c-2.83,0-5.18,0.84-6.56,3.13
		c-0.53,0.87-0.76,2.31-0.89,3.28c-0.27,2.03-0.32,4.14-0.32,6.18v59.23c0,2.21,0.07,8.18,1.53,10.06c1.47,1.89,3.73,2.53,6.24,2.53
		h3.49v3.77h-35.22v-3.77h3.55c2.85,0,5.14-0.86,6.52-3.15c0.52-0.86,0.75-2.31,0.88-3.27c0.27-2.02,0.32-4.13,0.32-6.16V96.25z"/>
	<path class="st3" d="M206.58,96.25l-29.39,73.18h-2.97l-29.45-73.19v56.84c0,2.17,0.04,8.22,1.45,10.06
		c1.45,1.9,3.76,2.52,6.26,2.52H156v3.77h-29.1v-3.77h3.53c2.85,0,5.13-0.87,6.52-3.15c0.52-0.86,0.75-2.31,0.88-3.27
		c0.26-2.03,0.31-4.13,0.31-6.17V93.85c0-1.7-0.06-3.42-0.28-5.11c-0.15-1.1-0.38-2.31-0.83-3.35c-0.54-1.25-1.49-2.2-2.74-2.93
		c-1.75-1.03-4.63-1.19-6.66-1.19h-0.73v-3.79h23.74l28.3,69.66l27.85-69.66h23.74v3.79h-3.49c-2.83,0-5.18,0.84-6.56,3.13
		c-0.53,0.87-0.76,2.31-0.89,3.28c-0.27,2.03-0.32,4.14-0.32,6.18v59.23c0,2.21,0.07,8.18,1.53,10.06c1.47,1.89,3.73,2.53,6.24,2.53
		h3.49v3.77h-35.22v-3.77h3.55c2.85,0,5.14-0.86,6.52-3.15c0.52-0.86,0.75-2.31,0.88-3.27c0.27-2.02,0.32-4.13,0.32-6.16V96.25z"/>
	<path class="st6" d="M174.73,168.78l-30.7-76.28v60.58c0,5.57,0.52,9.04,1.58,10.43c1.44,1.87,3.74,2.81,6.86,2.81h2.8v2.46h-27.64
		v-2.46h2.8c3.36,0,5.74-1.16,7.16-3.49c0.86-1.41,1.28-4.68,1.28-9.74V93.85c0-4.02-0.38-6.91-1.16-8.69
		c-0.56-1.3-1.56-2.37-3.02-3.24c-1.48-0.87-3.82-1.3-7.06-1.3v-2.49h22.5l28.82,70.94l28.36-70.94h22.5v2.49h-2.76
		c-3.4,0-5.8,1.16-7.2,3.47c-0.86,1.44-1.3,4.68-1.3,9.77v59.23c0,5.57,0.56,9.04,1.66,10.43c1.44,1.87,3.72,2.81,6.84,2.81h2.76
		v2.46h-33.76v-2.46h2.82c3.4,0,5.78-1.16,7.16-3.49c0.86-1.41,1.28-4.68,1.28-9.74V92.5l-30.64,76.28H174.73z"/>
	<path class="st3" d="M174.73,168.78l-30.7-76.28v60.58c0,5.57,0.52,9.04,1.58,10.43c1.44,1.87,3.74,2.81,6.86,2.81h2.8v2.46h-27.64
		v-2.46h2.8c3.36,0,5.74-1.16,7.16-3.49c0.86-1.41,1.28-4.68,1.28-9.74V93.85c0-4.02-0.38-6.91-1.16-8.69
		c-0.56-1.3-1.56-2.37-3.02-3.24c-1.48-0.87-3.82-1.3-7.06-1.3v-2.49h22.5l28.82,70.94l28.36-70.94h22.5v2.49h-2.76
		c-3.4,0-5.8,1.16-7.2,3.47c-0.86,1.44-1.3,4.68-1.3,9.77v59.23c0,5.57,0.56,9.04,1.66,10.43c1.44,1.87,3.72,2.81,6.84,2.81h2.76
		v2.46h-33.76v-2.46h2.82c3.4,0,5.78-1.16,7.16-3.49c0.86-1.41,1.28-4.68,1.28-9.74V92.5l-30.64,76.28H174.73z"/>
</g>
</svg>
