<?xml version="1.0" encoding="utf-8"?>
<!-- Generator: Adobe Illustrator 24.0.0, SVG Export Plug-In . SVG Version: 6.00 Build 0)  -->
<svg version="1.1" id="Livello_1" xmlns="http://www.w3.org/2000/svg" xmlns:xlink="http://www.w3.org/1999/xlink" x="0px" y="0px"
	 viewBox="0 0 283.46 283.46" style="enable-background:new 0 0 283.46 283.46;" xml:space="preserve">
<style type="text/css">
	.st0{fill:#010045;}
</style>
<g>
	<path class="st0" d="M239.41,280.49H44.05c-22.65,0-41.08-18.43-41.08-41.08V44.05C2.97,21.4,21.4,2.97,44.05,2.97h195.36
		c22.65,0,41.08,18.43,41.08,41.08v195.36C280.49,262.06,262.06,280.49,239.41,280.49z M44.05,8.53
		c-19.58,0-35.52,15.93-35.52,35.52v195.36c0,19.58,15.93,35.52,35.52,35.52h195.36c19.58,0,35.52-15.93,35.52-35.52V44.05
		c0-19.58-15.93-35.52-35.52-35.52H44.05z"/>
</g>
<g>
	<path class="st0" d="M239.97,269.7H43.49c-16.39,0-29.72-13.33-29.72-29.72V43.49c0-16.39,13.33-29.72,29.72-29.72h196.49
		c16.38,0,29.72,13.33,29.72,29.72v196.49C269.7,256.36,256.36,269.7,239.97,269.7z M43.49,16.61c-14.82,0-26.88,12.06-26.88,26.88
		v196.49c0,14.82,12.06,26.88,26.88,26.88h196.48c14.83,0,26.89-12.06,26.89-26.88V43.49c0-14.82-12.06-26.88-26.88-26.88H43.49z"/>
</g>
<g>
	<path class="st0" d="M64.69,133.75h-4.52l-1.8-4.67h-8.22l-1.7,4.67h-4.41l8.01-20.57h4.39L64.69,133.75z M57.04,125.61l-2.83-7.63
		l-2.78,7.63H57.04z"/>
	<path class="st0" d="M76.46,126.19v-3.47h8.95v8.19c-0.87,0.84-2.13,1.58-3.78,2.22s-3.32,0.96-5.02,0.96
		c-2.15,0-4.03-0.45-5.63-1.35s-2.8-2.19-3.61-3.87c-0.8-1.68-1.21-3.5-1.21-5.48c0-2.14,0.45-4.05,1.35-5.71
		c0.9-1.66,2.21-2.94,3.94-3.83c1.32-0.68,2.96-1.02,4.92-1.02c2.55,0,4.55,0.54,5.98,1.61c1.44,1.07,2.36,2.55,2.77,4.44
		l-4.13,0.77c-0.29-1.01-0.83-1.81-1.63-2.39c-0.8-0.58-1.8-0.88-3-0.88c-1.81,0-3.26,0.58-4.33,1.73
		c-1.07,1.15-1.61,2.86-1.61,5.12c0,2.44,0.54,4.27,1.63,5.49s2.51,1.83,4.27,1.83c0.87,0,1.74-0.17,2.62-0.51
		c0.87-0.34,1.62-0.76,2.25-1.24v-2.61H76.46z"/>
	<path class="st0" d="M89.24,133.75v-20.57h15.25v3.48h-11.1v4.56h10.33v3.47H93.39v5.6h11.49v3.47H89.24z"/>
	<path class="st0" d="M108.45,133.75v-20.57h4.04l8.42,13.74v-13.74h3.86v20.57h-4.17l-8.29-13.41v13.41H108.45z"/>
	<path class="st0" d="M127.38,133.75V130l10.8-13.34h-9.58v-3.48h15.05v3.23l-11.27,13.88h11.7v3.47H127.38z"/>
	<path class="st0" d="M146.58,133.75v-20.57h4.15v20.57H146.58z"/>
	<path class="st0" d="M173.24,133.75h-4.52l-1.8-4.67h-8.22l-1.7,4.67h-4.41l8.01-20.57h4.39L173.24,133.75z M165.6,125.61
		l-2.83-7.63l-2.78,7.63H165.6z"/>
	<path class="st0" d="M182.36,133.75v-20.57h6.66c2.53,0,4.17,0.1,4.94,0.31c1.18,0.31,2.17,0.98,2.96,2.01
		c0.79,1.03,1.19,2.37,1.19,4.01c0,1.26-0.23,2.32-0.69,3.18c-0.46,0.86-1.04,1.54-1.75,2.03c-0.71,0.49-1.42,0.82-2.15,0.97
		c-0.99,0.2-2.43,0.29-4.31,0.29h-2.71v7.76H182.36z M186.52,116.66v5.84h2.27c1.64,0,2.73-0.11,3.28-0.32s0.98-0.55,1.3-1.01
		c0.31-0.46,0.47-0.99,0.47-1.6c0-0.75-0.22-1.37-0.66-1.85s-1-0.79-1.67-0.91c-0.5-0.09-1.49-0.14-2.99-0.14H186.52z"/>
	<path class="st0" d="M201.53,133.75v-20.57h15.25v3.48h-11.1v4.56h10.33v3.47h-10.33v5.6h11.49v3.47H201.53z"/>
	<path class="st0" d="M220.71,133.75v-20.57h8.74c2.2,0,3.79,0.19,4.79,0.55c1,0.37,1.79,1.03,2.39,1.97c0.6,0.94,0.9,2.02,0.9,3.24
		c0,1.54-0.45,2.82-1.36,3.82c-0.91,1.01-2.26,1.64-4.07,1.9c0.9,0.52,1.64,1.1,2.22,1.73c0.58,0.63,1.37,1.74,2.36,3.34l2.51,4.01
		h-4.97l-3-4.48c-1.07-1.6-1.8-2.61-2.19-3.02c-0.39-0.42-0.81-0.7-1.25-0.86c-0.44-0.15-1.14-0.23-2.09-0.23h-0.84v8.59H220.71z
		 M224.86,121.88h3.07c1.99,0,3.24-0.08,3.73-0.25c0.5-0.17,0.88-0.46,1.17-0.87c0.28-0.41,0.42-0.93,0.42-1.54
		c0-0.69-0.19-1.25-0.55-1.68c-0.37-0.42-0.89-0.69-1.56-0.81c-0.34-0.05-1.35-0.07-3.03-0.07h-3.24V121.88z"/>
	<path class="st0" d="M66.77,163.55v-20.57h4.15v20.57H66.77z"/>
	<path class="st0" d="M74.99,163.55v-20.4h4.15v16.93h10.33v3.47H74.99z"/>
	<path class="st0" d="M100.01,163.55v-20.4h4.15v16.93h10.33v3.47H100.01z"/>
	<path class="st0" d="M136,163.55h-4.52l-1.8-4.67h-8.22l-1.7,4.67h-4.41l8.01-20.57h4.39L136,163.55z M128.35,155.41l-2.83-7.63
		l-2.78,7.63H128.35z"/>
	<path class="st0" d="M141.32,163.55l-7.35-20.57h4.5l5.21,15.22l5.04-15.22h4.41l-7.37,20.57H141.32z"/>
	<path class="st0" d="M154.39,153.39c0-2.09,0.31-3.85,0.94-5.28c0.47-1.05,1.11-1.99,1.92-2.82c0.81-0.83,1.7-1.45,2.66-1.85
		c1.28-0.54,2.76-0.81,4.43-0.81c3.03,0,5.46,0.94,7.28,2.82s2.73,4.5,2.73,7.84c0,3.32-0.9,5.92-2.71,7.79
		c-1.8,1.88-4.22,2.81-7.24,2.81c-3.06,0-5.49-0.93-7.3-2.8C155.29,159.23,154.39,156.66,154.39,153.39z M158.67,153.25
		c0,2.33,0.54,4.09,1.61,5.3c1.08,1.2,2.44,1.8,4.1,1.8c1.66,0,3.01-0.6,4.08-1.79c1.06-1.19,1.59-2.98,1.59-5.37
		c0-2.36-0.52-4.12-1.55-5.28c-1.03-1.16-2.41-1.74-4.12-1.74s-3.09,0.59-4.14,1.76S158.67,150.88,158.67,153.25z"/>
	<path class="st0" d="M177.6,163.55v-20.57h8.74c2.2,0,3.79,0.19,4.79,0.55c1,0.37,1.79,1.03,2.39,1.97c0.6,0.94,0.9,2.02,0.9,3.24
		c0,1.54-0.45,2.82-1.36,3.82c-0.91,1.01-2.26,1.64-4.07,1.9c0.9,0.52,1.64,1.1,2.22,1.73c0.58,0.63,1.37,1.74,2.36,3.34l2.51,4.01
		h-4.97l-3-4.48c-1.07-1.6-1.8-2.61-2.19-3.02c-0.39-0.42-0.81-0.7-1.25-0.86c-0.44-0.15-1.14-0.23-2.09-0.23h-0.84v8.59H177.6z
		 M181.75,151.68h3.07c1.99,0,3.24-0.08,3.73-0.25c0.5-0.17,0.88-0.46,1.17-0.87c0.28-0.41,0.42-0.93,0.42-1.54
		c0-0.69-0.19-1.25-0.55-1.68c-0.37-0.42-0.89-0.69-1.56-0.81c-0.34-0.05-1.35-0.07-3.03-0.07h-3.24V151.68z"/>
	<path class="st0" d="M197.49,153.39c0-2.09,0.31-3.85,0.94-5.28c0.47-1.05,1.11-1.99,1.92-2.82c0.81-0.83,1.7-1.45,2.66-1.85
		c1.28-0.54,2.76-0.81,4.43-0.81c3.03,0,5.46,0.94,7.28,2.82s2.73,4.5,2.73,7.84c0,3.32-0.9,5.92-2.71,7.79
		c-1.8,1.88-4.22,2.81-7.24,2.81c-3.06,0-5.49-0.93-7.3-2.8C198.4,159.23,197.49,156.66,197.49,153.39z M201.77,153.25
		c0,2.33,0.54,4.09,1.61,5.3c1.08,1.2,2.44,1.8,4.1,1.8c1.66,0,3.01-0.6,4.08-1.79c1.06-1.19,1.59-2.98,1.59-5.37
		c0-2.36-0.52-4.12-1.55-5.28c-1.03-1.16-2.41-1.74-4.12-1.74s-3.09,0.59-4.14,1.76S201.77,150.88,201.77,153.25z"/>
</g>
</svg>
