<?xml version="1.0" encoding="utf-8"?>
<!-- Generator: Adobe Illustrator 24.0.0, SVG Export Plug-In . SVG Version: 6.00 Build 0)  -->
<svg version="1.1" id="Livello_1" xmlns="http://www.w3.org/2000/svg" xmlns:xlink="http://www.w3.org/1999/xlink" x="0px" y="0px"
	 viewBox="0 0 283.46 283.46" style="enable-background:new 0 0 283.46 283.46;" xml:space="preserve">
<style type="text/css">
	.st0{fill:#B2B2B2;}
</style>
<g>
	<path class="st0" d="M239.41,280.49H44.05c-22.65,0-41.08-18.43-41.08-41.08V44.05C2.97,21.4,21.4,2.97,44.05,2.97h195.36
		c22.65,0,41.08,18.43,41.08,41.08v195.36C280.49,262.06,262.06,280.49,239.41,280.49z M44.05,8.53
		c-19.58,0-35.52,15.93-35.52,35.52v195.36c0,19.58,15.93,35.52,35.52,35.52h195.36c19.58,0,35.52-15.93,35.52-35.52V44.05
		c0-19.58-15.93-35.52-35.52-35.52C239.41,8.53,44.05,8.53,44.05,8.53z"/>
</g>
<g>
	<path class="st0" d="M239.97,269.7H43.49c-16.39,0-29.72-13.33-29.72-29.72V43.49c0-16.39,13.33-29.72,29.72-29.72h196.49
		c16.38,0,29.72,13.33,29.72,29.72v196.49C269.7,256.36,256.36,269.7,239.97,269.7z M43.49,16.61c-14.82,0-26.88,12.06-26.88,26.88
		v196.49c0,14.82,12.06,26.88,26.88,26.88h196.48c14.83,0,26.89-12.06,26.89-26.88V43.49c0-14.82-12.06-26.88-26.88-26.88
		C239.98,16.61,43.49,16.61,43.49,16.61z"/>
</g>
<g>
	<g>
		<path class="st0" d="M78.52,133.75H74l-1.8-4.67h-8.22l-1.7,4.67h-4.41l8.01-20.57h4.39L78.52,133.75z M70.87,125.61l-2.83-7.63
			l-2.78,7.63H70.87z"/>
		<path class="st0" d="M80.74,133.75v-20.57h8.74c2.2,0,3.8,0.19,4.79,0.55s1.79,1.03,2.39,1.97s0.9,2.02,0.9,3.24
			c0,1.54-0.45,2.82-1.36,3.82c-0.91,1.01-2.26,1.64-4.07,1.9c0.9,0.52,1.64,1.1,2.22,1.73c0.58,0.63,1.37,1.74,2.36,3.34l2.51,4.01
			h-4.97l-3-4.48c-1.07-1.6-1.8-2.61-2.19-3.02c-0.39-0.42-0.81-0.7-1.25-0.86c-0.44-0.15-1.14-0.23-2.09-0.23h-0.84v8.59
			L80.74,133.75L80.74,133.75z M84.89,121.88h3.07c1.99,0,3.24-0.08,3.73-0.25c0.5-0.17,0.88-0.46,1.16-0.87
			c0.28-0.41,0.42-0.93,0.42-1.54c0-0.69-0.18-1.25-0.55-1.68c-0.37-0.42-0.89-0.69-1.56-0.81c-0.34-0.05-1.35-0.07-3.03-0.07h-3.24
			C84.89,116.66,84.89,121.88,84.89,121.88z"/>
		<path class="st0" d="M114.64,126.19l4.03,1.28c-0.62,2.25-1.64,3.91-3.08,5s-3.26,1.63-5.46,1.63c-2.73,0-4.98-0.93-6.73-2.8
			c-1.76-1.87-2.64-4.42-2.64-7.65c0-3.42,0.88-6.08,2.65-7.98c1.77-1.89,4.09-2.84,6.97-2.84c2.52,0,4.56,0.74,6.13,2.23
			c0.94,0.88,1.64,2.14,2.1,3.79l-4.11,0.98c-0.24-1.07-0.75-1.91-1.52-2.53c-0.77-0.62-1.71-0.93-2.81-0.93
			c-1.52,0-2.76,0.55-3.71,1.64s-1.42,2.87-1.42,5.32c0,2.6,0.47,4.45,1.4,5.56c0.94,1.1,2.15,1.66,3.65,1.66
			c1.1,0,2.05-0.35,2.85-1.05C113.72,128.8,114.29,127.69,114.64,126.19z"/>
		<path class="st0" d="M122.24,133.75v-20.57h4.15v8.1h8.14v-8.1h4.15v20.57h-4.15v-8.99h-8.14v8.99H122.24z"/>
		<path class="st0" d="M142.85,133.75v-20.57H147v20.57H142.85z"/>
		<path class="st0" d="M156.21,133.75l-7.35-20.57h4.5l5.21,15.22l5.04-15.22h4.41l-7.37,20.57H156.21z"/>
		<path class="st0" d="M170,133.75v-20.57h4.15v20.57H170z"/>
		<path class="st0" d="M177.27,123.59c0-2.09,0.31-3.85,0.94-5.28c0.47-1.05,1.11-1.99,1.92-2.82s1.7-1.45,2.66-1.85
			c1.28-0.54,2.76-0.81,4.43-0.81c3.03,0,5.46,0.94,7.28,2.82s2.73,4.5,2.73,7.84c0,3.32-0.9,5.92-2.71,7.79
			c-1.8,1.88-4.22,2.81-7.24,2.81c-3.06,0-5.49-0.93-7.3-2.8C178.17,129.43,177.27,126.86,177.27,123.59z M181.55,123.45
			c0,2.33,0.54,4.09,1.61,5.3c1.08,1.2,2.44,1.8,4.1,1.8s3.01-0.6,4.08-1.79c1.06-1.19,1.59-2.98,1.59-5.37
			c0-2.36-0.52-4.12-1.55-5.28c-1.03-1.16-2.41-1.74-4.12-1.74s-3.09,0.59-4.14,1.76S181.55,121.08,181.55,123.45z"/>
		<path class="st0" d="M208.44,133.75v-20.57h15.25v3.48h-11.1v4.56h10.33v3.47H212.6v5.6h11.49v3.47h-15.65V133.75z"/>
		<path class="st0" d="M75.02,155.99l4.03,1.28c-0.62,2.25-1.64,3.91-3.08,5s-3.26,1.63-5.46,1.63c-2.73,0-4.98-0.93-6.73-2.8
			c-1.76-1.87-2.64-4.42-2.64-7.65c0-3.42,0.88-6.08,2.65-7.98c1.77-1.89,4.09-2.84,6.97-2.84c2.52,0,4.56,0.74,6.13,2.23
			c0.94,0.88,1.64,2.14,2.1,3.79l-4.11,0.98c-0.24-1.07-0.75-1.91-1.52-2.53s-1.71-0.93-2.81-0.93c-1.52,0-2.76,0.55-3.71,1.64
			s-1.42,2.87-1.42,5.32c0,2.6,0.47,4.45,1.4,5.56c0.94,1.1,2.15,1.66,3.65,1.66c1.1,0,2.05-0.35,2.85-1.05
			C74.1,158.59,74.67,157.49,75.02,155.99z"/>
		<path class="st0" d="M81.77,153.39c0-2.09,0.31-3.85,0.94-5.28c0.47-1.05,1.11-1.99,1.92-2.82s1.7-1.45,2.66-1.85
			c1.28-0.54,2.76-0.81,4.43-0.81c3.03,0,5.46,0.94,7.27,2.82s2.73,4.5,2.73,7.84c0,3.32-0.9,5.92-2.71,7.79
			c-1.81,1.88-4.22,2.81-7.24,2.81c-3.06,0-5.49-0.93-7.3-2.8S81.77,156.66,81.77,153.39z M86.05,153.25c0,2.33,0.54,4.09,1.61,5.3
			s2.44,1.8,4.1,1.8c1.66,0,3.01-0.6,4.08-1.79c1.06-1.19,1.59-2.98,1.59-5.37c0-2.36-0.52-4.12-1.55-5.28
			c-1.03-1.16-2.41-1.74-4.12-1.74s-3.09,0.59-4.14,1.76C86.57,149.11,86.05,150.88,86.05,153.25z"/>
		<path class="st0" d="M105,163.55v-20.57h4.04l8.42,13.74v-13.74h3.86v20.57h-4.17l-8.29-13.41v13.41L105,163.55L105,163.55z"/>
		<path class="st0" d="M130.34,163.55v-17.09h-6.1v-3.48h16.35v3.48h-6.09v17.09H130.34z"/>
		<path class="st0" d="M143.28,163.55v-20.57h8.74c2.2,0,3.79,0.19,4.79,0.55c1,0.37,1.79,1.03,2.39,1.97s0.9,2.02,0.9,3.24
			c0,1.54-0.45,2.82-1.36,3.82c-0.91,1.01-2.26,1.64-4.07,1.9c0.9,0.52,1.64,1.1,2.22,1.73c0.58,0.63,1.37,1.74,2.36,3.34l2.51,4.01
			h-4.97l-3-4.48c-1.07-1.6-1.8-2.61-2.19-3.02s-0.81-0.7-1.25-0.86c-0.44-0.15-1.14-0.23-2.09-0.23h-0.84v8.59L143.28,163.55
			L143.28,163.55z M147.43,151.68h3.07c1.99,0,3.24-0.08,3.73-0.25c0.5-0.17,0.88-0.46,1.17-0.87c0.28-0.41,0.42-0.93,0.42-1.54
			c0-0.69-0.19-1.25-0.55-1.68c-0.37-0.42-0.89-0.69-1.56-0.81c-0.34-0.05-1.35-0.07-3.03-0.07h-3.24L147.43,151.68L147.43,151.68z"
			/>
		<path class="st0" d="M182.56,163.55h-4.52l-1.8-4.67h-8.22l-1.7,4.67h-4.41l8.01-20.57h4.39L182.56,163.55z M174.92,155.41
			l-2.83-7.63l-2.78,7.63H174.92z"/>
		<path class="st0" d="M187.27,163.55v-17.09h-6.1v-3.48h16.35v3.48h-6.09v17.09H187.27z"/>
		<path class="st0" d="M204.82,163.55v-17.09h-6.1v-3.48h16.35v3.48h-6.09v17.09H204.82z"/>
		<path class="st0" d="M217.61,163.55v-20.57h4.15v20.57L217.61,163.55L217.61,163.55z"/>
	</g>
</g>
</svg>
