<?xml version="1.0" encoding="utf-8"?>
<!-- Generator: Adobe Illustrator 24.0.0, SVG Export Plug-In . SVG Version: 6.00 Build 0)  -->
<svg version="1.1" id="Livello_1" xmlns="http://www.w3.org/2000/svg" xmlns:xlink="http://www.w3.org/1999/xlink" x="0px" y="0px"
	 viewBox="0 0 283.46 283.46" style="enable-background:new 0 0 283.46 283.46;" xml:space="preserve">
<style type="text/css">
	.st0{fill:#B2B2B2;}
</style>
<g>
	<path class="st0" d="M239.41,280.49H44.05c-22.65,0-41.08-18.43-41.08-41.08V44.05C2.97,21.4,21.4,2.97,44.05,2.97h195.36
		c22.65,0,41.08,18.43,41.08,41.08v195.36C280.49,262.06,262.06,280.49,239.41,280.49z M44.05,8.53
		c-19.58,0-35.52,15.93-35.52,35.52v195.36c0,19.58,15.93,35.52,35.52,35.52h195.36c19.58,0,35.52-15.93,35.52-35.52V44.05
		c0-19.58-15.93-35.52-35.52-35.52C239.41,8.53,44.05,8.53,44.05,8.53z"/>
</g>
<g>
	<path class="st0" d="M239.97,269.7H43.49c-16.39,0-29.72-13.33-29.72-29.72V43.49c0-16.39,13.33-29.72,29.72-29.72h196.49
		c16.38,0,29.72,13.33,29.72,29.72v196.49C269.7,256.36,256.36,269.7,239.97,269.7z M43.49,16.61c-14.82,0-26.88,12.06-26.88,26.88
		v196.49c0,14.82,12.06,26.88,26.88,26.88h196.48c14.83,0,26.89-12.06,26.89-26.88V43.49c0-14.82-12.06-26.88-26.88-26.88
		C239.98,16.61,43.49,16.61,43.49,16.61z"/>
</g>
<g>
	<path class="st0" d="M127.42,104.28l4.03,1.28c-0.62,2.25-1.64,3.91-3.08,5s-3.26,1.63-5.46,1.63c-2.73,0-4.98-0.93-6.73-2.8
		c-1.76-1.87-2.64-4.42-2.64-7.65c0-3.42,0.88-6.08,2.65-7.98c1.77-1.89,4.09-2.84,6.97-2.84c2.52,0,4.56,0.74,6.13,2.23
		c0.94,0.88,1.64,2.14,2.1,3.79l-4.11,0.98c-0.24-1.07-0.75-1.91-1.52-2.53c-0.77-0.62-1.71-0.93-2.81-0.93
		c-1.52,0-2.76,0.55-3.71,1.64s-1.42,2.87-1.42,5.32c0,2.6,0.47,4.45,1.4,5.56c0.94,1.1,2.15,1.66,3.65,1.66
		c1.1,0,2.05-0.35,2.85-1.05C126.51,106.89,127.08,105.79,127.42,104.28z"/>
	<path class="st0" d="M153.56,111.85h-4.52l-1.8-4.67h-8.22l-1.7,4.67h-4.41l8.01-20.57h4.39L153.56,111.85z M145.92,103.71
		l-2.83-7.63l-2.78,7.63H145.92z"/>
	<path class="st0" d="M155.79,111.85V91.28h14.1v3.48h-9.95v4.87h8.59v3.48h-8.59v8.74C159.94,111.85,155.79,111.85,155.79,111.85z"
		/>
	<path class="st0" d="M87.11,148.95l4.04-0.39c0.24,1.36,0.74,2.35,1.48,2.99c0.74,0.64,1.75,0.95,3.01,0.95
		c1.34,0,2.35-0.28,3.02-0.85c0.68-0.57,1.02-1.23,1.02-1.99c0-0.49-0.14-0.9-0.43-1.24s-0.78-0.64-1.49-0.89
		c-0.49-0.17-1.59-0.47-3.33-0.9c-2.23-0.55-3.79-1.23-4.69-2.03c-1.26-1.13-1.89-2.51-1.89-4.14c0-1.05,0.3-2.03,0.89-2.94
		s1.45-1.61,2.57-2.08c1.12-0.48,2.47-0.72,4.05-0.72c2.58,0,4.52,0.57,5.83,1.7c1.3,1.13,1.99,2.64,2.06,4.53l-4.15,0.18
		c-0.18-1.06-0.56-1.82-1.14-2.28c-0.58-0.46-1.46-0.69-2.63-0.69c-1.21,0-2.15,0.25-2.83,0.74c-0.44,0.32-0.66,0.74-0.66,1.28
		c0,0.49,0.21,0.9,0.62,1.25c0.52,0.44,1.8,0.9,3.82,1.38c2.02,0.48,3.52,0.97,4.48,1.48c0.97,0.51,1.73,1.21,2.27,2.09
		c0.55,0.88,0.82,1.98,0.82,3.28c0,1.18-0.33,2.28-0.98,3.31s-1.58,1.79-2.78,2.29s-2.69,0.75-4.48,0.75c-2.6,0-4.6-0.6-5.99-1.8
		C88.22,153.01,87.39,151.25,87.11,148.95z"/>
	<path class="st0" d="M107.33,155.65v-20.57h15.25v3.48h-11.1v4.56h10.33v3.47h-10.33v5.6h11.49v3.47L107.33,155.65L107.33,155.65z"
		/>
	<path class="st0" d="M126.51,155.65v-20.57h8.74c2.2,0,3.8,0.19,4.79,0.55s1.79,1.03,2.39,1.97s0.9,2.02,0.9,3.24
		c0,1.54-0.45,2.82-1.36,3.82c-0.91,1.01-2.26,1.64-4.07,1.9c0.9,0.52,1.64,1.1,2.22,1.73c0.58,0.63,1.37,1.74,2.36,3.34l2.51,4.01
		h-4.97l-3-4.48c-1.07-1.6-1.8-2.61-2.19-3.02c-0.39-0.42-0.81-0.7-1.25-0.86c-0.44-0.15-1.14-0.23-2.09-0.23h-0.84v8.59h-4.14
		V155.65z M130.67,143.78h3.07c1.99,0,3.24-0.08,3.73-0.25c0.5-0.17,0.88-0.46,1.16-0.87c0.28-0.41,0.42-0.93,0.42-1.54
		c0-0.69-0.18-1.25-0.55-1.68c-0.37-0.42-0.89-0.69-1.56-0.81c-0.34-0.05-1.35-0.07-3.03-0.07h-3.24V143.78z"/>
	<path class="st0" d="M151.98,155.65l-7.35-20.57h4.5l5.21,15.22l5.04-15.22h4.41l-7.37,20.57H151.98z"/>
	<path class="st0" d="M165.77,155.65v-20.57h4.15v20.57H165.77z"/>
	<path class="st0" d="M172.1,155.65v-3.75l10.8-13.34h-9.58v-3.48h15.05v3.23l-11.27,13.88h11.7v3.47h-16.7V155.65z"/>
	<path class="st0" d="M191.31,155.65v-20.57h4.15v20.57H191.31z"/>
	<path class="st0" d="M58.13,178.75l4.04-0.39c0.24,1.36,0.74,2.35,1.48,2.99s1.75,0.95,3.01,0.95c1.34,0,2.35-0.28,3.02-0.85
		c0.68-0.57,1.02-1.23,1.02-1.99c0-0.49-0.14-0.9-0.43-1.24s-0.78-0.64-1.49-0.89c-0.49-0.17-1.59-0.47-3.33-0.9
		c-2.23-0.55-3.79-1.23-4.69-2.03c-1.26-1.13-1.89-2.51-1.89-4.14c0-1.05,0.3-2.03,0.89-2.94s1.45-1.61,2.57-2.08
		c1.12-0.48,2.47-0.72,4.05-0.72c2.58,0,4.52,0.57,5.83,1.7c1.3,1.13,1.99,2.64,2.06,4.53l-4.15,0.18
		c-0.18-1.06-0.56-1.82-1.14-2.28c-0.58-0.46-1.46-0.69-2.63-0.69c-1.21,0-2.15,0.25-2.83,0.74c-0.44,0.32-0.66,0.74-0.66,1.28
		c0,0.49,0.21,0.9,0.62,1.25c0.52,0.44,1.8,0.9,3.82,1.38c2.02,0.48,3.52,0.97,4.48,1.48c0.97,0.51,1.73,1.21,2.27,2.09
		c0.55,0.88,0.82,1.98,0.82,3.28c0,1.18-0.33,2.28-0.98,3.31s-1.58,1.79-2.78,2.29s-2.69,0.75-4.48,0.75c-2.6,0-4.6-0.6-5.99-1.8
		C59.23,182.81,58.4,181.05,58.13,178.75z"/>
	<path class="st0" d="M78.29,185.45v-20.57h6.22l3.73,14.03l3.69-14.03h6.23v20.57H94.3v-16.19l-4.08,16.19h-4l-4.07-16.19v16.19
		L78.29,185.45L78.29,185.45z"/>
	<path class="st0" d="M120.83,185.45h-4.52l-1.8-4.67h-8.22l-1.7,4.67h-4.41l8.01-20.57h4.39L120.83,185.45z M113.18,177.31
		l-2.83-7.63l-2.78,7.63H113.18z"/>
	<path class="st0" d="M123.05,185.45v-20.57h8.74c2.2,0,3.8,0.19,4.79,0.55s1.79,1.03,2.39,1.97s0.9,2.02,0.9,3.24
		c0,1.54-0.45,2.82-1.36,3.82c-0.91,1.01-2.26,1.64-4.07,1.9c0.9,0.52,1.64,1.1,2.22,1.73c0.58,0.63,1.37,1.74,2.36,3.34l2.51,4.01
		h-4.97l-3-4.48c-1.07-1.6-1.8-2.61-2.19-3.02c-0.39-0.42-0.81-0.7-1.25-0.86c-0.44-0.15-1.14-0.23-2.09-0.23h-0.84v8.59
		L123.05,185.45L123.05,185.45z M127.2,173.58h3.07c1.99,0,3.24-0.08,3.73-0.25c0.5-0.17,0.88-0.46,1.16-0.87
		c0.28-0.41,0.42-0.93,0.42-1.54c0-0.69-0.18-1.25-0.55-1.68c-0.37-0.42-0.89-0.69-1.56-0.81c-0.34-0.05-1.35-0.07-3.03-0.07h-3.24
		C127.2,168.36,127.2,173.58,127.2,173.58z"/>
	<path class="st0" d="M148.41,185.45v-17.09h-6.1v-3.48h16.35v3.48h-6.09v17.09H148.41z"/>
	<path class="st0" d="M176.74,164.88h4.14v13.02c0,1.7-0.15,3.01-0.45,3.93c-0.4,1.2-1.13,2.16-2.19,2.88s-2.45,1.09-4.18,1.09
		c-2.03,0-3.59-0.57-4.69-1.7c-1.09-1.14-1.65-2.8-1.66-5l3.91-0.45c0.05,1.18,0.22,2.01,0.52,2.5c0.45,0.74,1.13,1.11,2.05,1.11
		c0.93,0,1.58-0.26,1.96-0.79s0.58-1.62,0.58-3.29L176.74,164.88L176.74,164.88z"/>
	<path class="st0" d="M184.46,175.29c0-2.09,0.31-3.85,0.94-5.28c0.47-1.05,1.11-1.99,1.92-2.82s1.7-1.45,2.66-1.85
		c1.28-0.54,2.76-0.81,4.43-0.81c3.03,0,5.46,0.94,7.28,2.82s2.73,4.5,2.73,7.84c0,3.32-0.9,5.92-2.71,7.79
		c-1.8,1.88-4.22,2.81-7.24,2.81c-3.06,0-5.49-0.93-7.3-2.8C185.36,181.13,184.46,178.56,184.46,175.29z M188.74,175.15
		c0,2.33,0.54,4.09,1.61,5.3c1.08,1.2,2.44,1.8,4.1,1.8s3.01-0.6,4.08-1.79c1.06-1.19,1.59-2.98,1.59-5.37
		c0-2.36-0.52-4.12-1.55-5.28s-2.41-1.74-4.12-1.74s-3.09,0.59-4.14,1.76S188.74,172.78,188.74,175.15z"/>
	<path class="st0" d="M207.67,164.88h8.22c1.63,0,2.84,0.07,3.64,0.2s1.51,0.42,2.15,0.85s1.16,1,1.58,1.72s0.63,1.52,0.63,2.41
		c0,0.96-0.26,1.85-0.78,2.65c-0.52,0.8-1.22,1.41-2.11,1.81c1.25,0.36,2.22,0.99,2.89,1.87c0.67,0.88,1.01,1.91,1.01,3.1
		c0,0.94-0.22,1.84-0.65,2.73c-0.43,0.88-1.03,1.59-1.78,2.12s-1.68,0.85-2.79,0.97c-0.69,0.08-2.36,0.12-5.01,0.14h-7
		L207.67,164.88L207.67,164.88z M211.82,168.3v4.76h2.72c1.62,0,2.62-0.02,3.02-0.07c0.71-0.08,1.27-0.33,1.68-0.74
		c0.41-0.41,0.61-0.94,0.61-1.61c0-0.64-0.18-1.15-0.53-1.55s-0.87-0.64-1.56-0.72c-0.41-0.05-1.59-0.07-3.55-0.07L211.82,168.3
		L211.82,168.3z M211.82,176.48v5.5h3.84c1.5,0,2.45-0.04,2.85-0.13c0.62-0.11,1.12-0.39,1.51-0.82c0.39-0.43,0.58-1.02,0.58-1.75
		c0-0.62-0.15-1.14-0.45-1.57c-0.3-0.43-0.73-0.74-1.3-0.94s-1.79-0.29-3.68-0.29L211.82,176.48L211.82,176.48z"/>
</g>
</svg>
