<?xml version="1.0" encoding="utf-8"?>
<!-- Generator: Adobe Illustrator 24.0.0, SVG Export Plug-In . SVG Version: 6.00 Build 0)  -->
<svg version="1.1" id="Livello_1" xmlns="http://www.w3.org/2000/svg" xmlns:xlink="http://www.w3.org/1999/xlink" x="0px" y="0px"
	 viewBox="0 0 283.46 283.46" style="enable-background:new 0 0 283.46 283.46;" xml:space="preserve">
<style type="text/css">
	.st0{fill:#010045;}
</style>
<g>
	<path class="st0" d="M239.41,280.49H44.05c-22.65,0-41.08-18.43-41.08-41.08V44.05C2.97,21.4,21.4,2.97,44.05,2.97h195.36
		c22.65,0,41.08,18.43,41.08,41.08v195.36C280.49,262.06,262.06,280.49,239.41,280.49z M44.05,8.53
		c-19.58,0-35.52,15.93-35.52,35.52v195.36c0,19.58,15.93,35.52,35.52,35.52h195.36c19.58,0,35.52-15.93,35.52-35.52V44.05
		c0-19.58-15.93-35.52-35.52-35.52H44.05z"/>
</g>
<g>
	<path class="st0" d="M239.97,269.7H43.49c-16.39,0-29.72-13.33-29.72-29.72V43.49c0-16.39,13.33-29.72,29.72-29.72h196.49
		c16.38,0,29.72,13.33,29.72,29.72v196.49C269.7,256.36,256.36,269.7,239.97,269.7z M43.49,16.61c-14.82,0-26.88,12.06-26.88,26.88
		v196.49c0,14.82,12.06,26.88,26.88,26.88h196.48c14.83,0,26.89-12.06,26.89-26.88V43.49c0-14.82-12.06-26.88-26.88-26.88H43.49z"/>
</g>
<g>
	<path class="st0" d="M127.42,141.08l4.03,1.28c-0.62,2.24-1.64,3.91-3.08,5c-1.44,1.09-3.26,1.63-5.46,1.63
		c-2.73,0-4.98-0.93-6.73-2.8c-1.76-1.87-2.64-4.42-2.64-7.65c0-3.42,0.88-6.08,2.65-7.98c1.77-1.89,4.09-2.84,6.97-2.84
		c2.52,0,4.56,0.74,6.13,2.23c0.94,0.88,1.64,2.14,2.1,3.79l-4.11,0.98c-0.24-1.07-0.75-1.91-1.52-2.53
		c-0.77-0.62-1.71-0.93-2.81-0.93c-1.52,0-2.76,0.55-3.71,1.64c-0.95,1.1-1.42,2.87-1.42,5.32c0,2.6,0.47,4.45,1.4,5.56
		c0.94,1.1,2.15,1.65,3.65,1.65c1.1,0,2.05-0.35,2.85-1.05C126.51,143.69,127.08,142.59,127.42,141.08z"/>
	<path class="st0" d="M153.56,148.65h-4.52l-1.8-4.67h-8.22l-1.7,4.67h-4.41l8.01-20.57h4.39L153.56,148.65z M145.92,140.51
		l-2.83-7.63l-2.78,7.63H145.92z"/>
	<path class="st0" d="M155.79,148.65v-20.57h14.1v3.48h-9.95v4.87h8.59v3.48h-8.59v8.74H155.79z"/>
</g>
</svg>
