<?xml version="1.0" encoding="utf-8"?>
<!-- Generator: Adobe Illustrator 24.0.0, SVG Export Plug-In . SVG Version: 6.00 Build 0)  -->
<svg version="1.1" id="Livello_1" xmlns="http://www.w3.org/2000/svg" xmlns:xlink="http://www.w3.org/1999/xlink" x="0px" y="0px"
	 viewBox="0 0 283.46 283.46" style="enable-background:new 0 0 283.46 283.46;" xml:space="preserve">
<style type="text/css">
	.st0{fill:#B2B2B2;}
</style>
<g>
	<g>
		<path class="st0" d="M92.56,141.08l4.03,1.28c-0.62,2.24-1.64,3.91-3.08,5S90.25,149,88.04,149c-2.73,0-4.98-0.93-6.73-2.8
			c-1.76-1.87-2.64-4.42-2.64-7.65c0-3.42,0.88-6.08,2.65-7.98s4.09-2.84,6.97-2.84c2.52,0,4.56,0.74,6.13,2.23
			c0.94,0.88,1.64,2.14,2.1,3.79l-4.11,0.98c-0.24-1.07-0.75-1.91-1.52-2.53s-1.71-0.93-2.81-0.93c-1.52,0-2.76,0.55-3.71,1.64
			c-0.95,1.1-1.42,2.87-1.42,5.32c0,2.6,0.47,4.45,1.4,5.56c0.93,1.1,2.15,1.65,3.65,1.65c1.1,0,2.05-0.35,2.85-1.05
			C91.64,143.69,92.21,142.59,92.56,141.08z"/>
		<path class="st0" d="M100.16,148.65v-20.57h8.74c2.2,0,3.8,0.19,4.79,0.55s1.79,1.03,2.39,1.97c0.6,0.95,0.9,2.03,0.9,3.24
			c0,1.54-0.45,2.82-1.36,3.82c-0.91,1.01-2.26,1.64-4.07,1.9c0.9,0.53,1.64,1.1,2.22,1.73s1.37,1.74,2.36,3.34l2.51,4.01h-4.97
			l-3-4.47c-1.07-1.6-1.8-2.61-2.19-3.02s-0.81-0.7-1.25-0.86c-0.44-0.15-1.14-0.23-2.09-0.23h-0.84v8.59H100.16z M104.32,136.78
			h3.07c1.99,0,3.24-0.08,3.73-0.25c0.5-0.17,0.88-0.46,1.17-0.87s0.42-0.93,0.42-1.54c0-0.69-0.18-1.25-0.55-1.68
			c-0.37-0.42-0.89-0.69-1.56-0.81c-0.34-0.04-1.35-0.07-3.03-0.07h-3.24V136.78z"/>
		<path class="st0" d="M120.9,148.65v-20.57h15.25v3.48h-11.1v4.56h10.33v3.47h-10.33v5.6h11.49v3.46H120.9z"/>
		<path class="st0" d="M140.05,128.08h7.59c1.71,0,3.02,0.13,3.92,0.39c1.21,0.36,2.24,0.99,3.1,1.89c0.86,0.91,1.52,2.02,1.96,3.33
			s0.67,2.94,0.67,4.86c0,1.69-0.21,3.15-0.63,4.38c-0.51,1.5-1.25,2.71-2.2,3.63c-0.72,0.7-1.69,1.25-2.92,1.64
			c-0.92,0.29-2.14,0.43-3.68,0.43h-7.81V128.08z M144.2,131.56v13.62h3.1c1.16,0,2-0.07,2.51-0.2c0.67-0.17,1.23-0.45,1.68-0.86
			c0.45-0.4,0.81-1.06,1.09-1.98c0.28-0.92,0.42-2.18,0.42-3.77s-0.14-2.81-0.42-3.66s-0.67-1.52-1.18-1.99
			c-0.51-0.48-1.15-0.8-1.92-0.97c-0.58-0.13-1.71-0.2-3.41-0.2H144.2z"/>
		<path class="st0" d="M160.69,148.65v-20.57h4.15v20.57H160.69z"/>
		<path class="st0" d="M173.43,148.65v-17.09h-6.1v-3.48h16.35v3.48h-6.09v17.09H173.43z"/>
		<path class="st0" d="M184.99,138.49c0-2.09,0.31-3.85,0.94-5.28c0.47-1.05,1.11-1.99,1.91-2.82c0.81-0.83,1.7-1.45,2.66-1.85
			c1.28-0.54,2.76-0.81,4.43-0.81c3.03,0,5.46,0.94,7.28,2.82c1.82,1.88,2.73,4.5,2.73,7.84c0,3.32-0.9,5.92-2.71,7.79
			c-1.8,1.88-4.22,2.81-7.24,2.81c-3.06,0-5.49-0.93-7.3-2.8C185.9,144.33,184.99,141.76,184.99,138.49z M189.27,138.35
			c0,2.33,0.54,4.1,1.61,5.3c1.07,1.2,2.44,1.8,4.1,1.8c1.66,0,3.02-0.6,4.08-1.79c1.06-1.19,1.59-2.98,1.59-5.37
			c0-2.36-0.52-4.12-1.55-5.28c-1.03-1.16-2.41-1.74-4.12-1.74c-1.71,0-3.09,0.59-4.14,1.76
			C189.8,134.21,189.27,135.98,189.27,138.35z"/>
	</g>
</g>
<g>
	<path class="st0" d="M239.41,280.49H44.05c-22.65,0-41.08-18.43-41.08-41.08V44.05C2.97,21.4,21.4,2.97,44.05,2.97h195.36
		c22.65,0,41.08,18.43,41.08,41.08v195.36C280.49,262.06,262.06,280.49,239.41,280.49z M44.05,8.53
		c-19.58,0-35.52,15.93-35.52,35.52v195.36c0,19.58,15.93,35.52,35.52,35.52h195.36c19.58,0,35.52-15.93,35.52-35.52V44.05
		c0-19.58-15.93-35.52-35.52-35.52H44.05z"/>
</g>
<g>
	<path class="st0" d="M239.97,269.7H43.49c-16.39,0-29.72-13.33-29.72-29.72V43.49c0-16.39,13.33-29.72,29.72-29.72h196.49
		c16.38,0,29.72,13.33,29.72,29.72v196.49C269.7,256.36,256.36,269.7,239.97,269.7z M43.49,16.61c-14.82,0-26.88,12.06-26.88,26.88
		v196.49c0,14.82,12.06,26.88,26.88,26.88h196.48c14.83,0,26.89-12.06,26.89-26.88V43.49c0-14.82-12.06-26.88-26.88-26.88H43.49z"/>
</g>
</svg>
