<?xml version="1.0" encoding="utf-8"?>
<!-- Generator: Adobe Illustrator 24.0.0, SVG Export Plug-In . SVG Version: 6.00 Build 0)  -->
<svg version="1.1" id="Livello_1" xmlns="http://www.w3.org/2000/svg" xmlns:xlink="http://www.w3.org/1999/xlink" x="0px" y="0px"
	 viewBox="0 0 283.46 283.46" style="enable-background:new 0 0 283.46 283.46;" xml:space="preserve">
<style type="text/css">
	.st0{fill:#B2B2B2;}
</style>
<g>
	<g>
		<path class="st0" d="M73.86,148.65v-20.57h4.04l8.42,13.74v-13.74h3.86v20.57h-4.17l-8.29-13.41v13.41H73.86z"/>
		<path class="st0" d="M113.12,148.65h-4.52l-1.8-4.67h-8.22l-1.7,4.67h-4.41l8.01-20.57h4.39L113.12,148.65z M105.47,140.51
			l-2.83-7.63l-2.78,7.63H105.47z"/>
		<path class="st0" d="M115.26,148.65v-20.57h6.22l3.73,14.03l3.69-14.03h6.23v20.57h-3.86v-16.19l-4.08,16.19h-4l-4.07-16.19v16.19
			H115.26z"/>
		<path class="st0" d="M139.13,148.65v-20.57h4.15v20.57H139.13z"/>
		<path class="st0" d="M147.25,148.65v-20.57H156c2.2,0,3.79,0.19,4.79,0.55c1,0.37,1.79,1.03,2.39,1.97s0.9,2.03,0.9,3.24
			c0,1.54-0.45,2.82-1.36,3.82s-2.26,1.64-4.07,1.9c0.9,0.53,1.64,1.1,2.22,1.73c0.58,0.63,1.37,1.74,2.36,3.34l2.51,4.01h-4.97
			l-3-4.47c-1.07-1.6-1.8-2.61-2.19-3.02c-0.39-0.42-0.81-0.7-1.25-0.86c-0.44-0.15-1.14-0.23-2.09-0.23h-0.84v8.59H147.25z
			 M151.41,136.78h3.07c1.99,0,3.24-0.08,3.73-0.25c0.5-0.17,0.88-0.46,1.17-0.87c0.28-0.41,0.42-0.93,0.42-1.54
			c0-0.69-0.19-1.25-0.55-1.68c-0.37-0.42-0.89-0.69-1.56-0.81c-0.34-0.04-1.35-0.07-3.03-0.07h-3.24V136.78z"/>
		<path class="st0" d="M167.86,148.65v-20.57h4.15v20.57H167.86z"/>
		<path class="st0" d="M194.52,148.65h-4.52l-1.8-4.67h-8.22l-1.7,4.67h-4.41l8.01-20.57h4.39L194.52,148.65z M186.88,140.51
			l-2.83-7.63l-2.78,7.63H186.88z"/>
		<path class="st0" d="M196.84,148.65v-20.4h4.15v16.94h10.33v3.46H196.84z"/>
	</g>
</g>
<g>
	<path class="st0" d="M239.41,280.49H44.05c-22.65,0-41.08-18.43-41.08-41.08V44.05C2.97,21.4,21.4,2.97,44.05,2.97h195.36
		c22.65,0,41.08,18.43,41.08,41.08v195.36C280.49,262.06,262.06,280.49,239.41,280.49z M44.05,8.53
		c-19.58,0-35.52,15.93-35.52,35.52v195.36c0,19.58,15.93,35.52,35.52,35.52h195.36c19.58,0,35.52-15.93,35.52-35.52V44.05
		c0-19.58-15.93-35.52-35.52-35.52H44.05z"/>
</g>
<g>
	<path class="st0" d="M239.97,269.7H43.49c-16.39,0-29.72-13.33-29.72-29.72V43.49c0-16.39,13.33-29.72,29.72-29.72h196.49
		c16.38,0,29.72,13.33,29.72,29.72v196.49C269.7,256.36,256.36,269.7,239.97,269.7z M43.49,16.61c-14.82,0-26.88,12.06-26.88,26.88
		v196.49c0,14.82,12.06,26.88,26.88,26.88h196.48c14.83,0,26.89-12.06,26.89-26.88V43.49c0-14.82-12.06-26.88-26.88-26.88H43.49z"/>
</g>
</svg>
