<?xml version="1.0" encoding="utf-8"?>
<!-- Generator: Adobe Illustrator 24.0.0, SVG Export Plug-In . SVG Version: 6.00 Build 0)  -->
<svg version="1.1" id="Livello_1" xmlns="http://www.w3.org/2000/svg" xmlns:xlink="http://www.w3.org/1999/xlink" x="0px" y="0px"
	 viewBox="0 0 283.46 283.46" style="enable-background:new 0 0 283.46 283.46;" xml:space="preserve">
<style type="text/css">
	.st0{fill:#010045;}
</style>
<g>
	<path class="st0" d="M239.41,280.49H44.05c-22.65,0-41.08-18.43-41.08-41.08V44.05C2.97,21.4,21.4,2.97,44.05,2.97h195.36
		c22.65,0,41.08,18.43,41.08,41.08v195.36C280.49,262.06,262.06,280.49,239.41,280.49z M44.05,8.53
		c-19.58,0-35.52,15.93-35.52,35.52v195.36c0,19.58,15.93,35.52,35.52,35.52h195.36c19.58,0,35.52-15.93,35.52-35.52V44.05
		c0-19.58-15.93-35.52-35.52-35.52H44.05z"/>
</g>
<g>
	<path class="st0" d="M239.97,269.7H43.49c-16.39,0-29.72-13.33-29.72-29.72V43.49c0-16.39,13.33-29.72,29.72-29.72h196.49
		c16.38,0,29.72,13.33,29.72,29.72v196.49C269.7,256.36,256.36,269.7,239.97,269.7z M43.49,16.61c-14.82,0-26.88,12.06-26.88,26.88
		v196.49c0,14.82,12.06,26.88,26.88,26.88h196.48c14.83,0,26.89-12.06,26.89-26.88V43.49c0-14.82-12.06-26.88-26.88-26.88H43.49z"/>
</g>
<g>
	<path class="st0" d="M66.4,148.65v-20.57h4.04l8.42,13.74v-13.74h3.86v20.57h-4.17l-8.29-13.41v13.41H66.4z"/>
	<path class="st0" d="M86.27,138.49c0-2.09,0.31-3.85,0.94-5.28c0.47-1.05,1.11-1.99,1.92-2.82c0.81-0.83,1.7-1.45,2.66-1.85
		c1.28-0.54,2.76-0.81,4.43-0.81c3.03,0,5.46,0.94,7.28,2.82c1.82,1.88,2.73,4.5,2.73,7.84c0,3.32-0.9,5.92-2.71,7.79
		c-1.81,1.88-4.22,2.81-7.24,2.81c-3.06,0-5.49-0.93-7.3-2.8C87.17,144.33,86.27,141.76,86.27,138.49z M90.55,138.35
		c0,2.33,0.54,4.1,1.61,5.3c1.08,1.2,2.44,1.8,4.1,1.8c1.66,0,3.01-0.6,4.08-1.79c1.06-1.19,1.59-2.98,1.59-5.37
		c0-2.36-0.52-4.12-1.55-5.28c-1.03-1.16-2.41-1.74-4.12-1.74c-1.71,0-3.09,0.59-4.14,1.76C91.07,134.21,90.55,135.98,90.55,138.35z
		"/>
	<path class="st0" d="M109.58,148.65v-20.4h4.15v16.94h10.33v3.46H109.58z"/>
	<path class="st0" d="M127.02,148.65v-20.57h15.25v3.48h-11.1v4.56h10.33v3.47h-10.33v5.6h11.49v3.46H127.02z"/>
	<path class="st0" d="M155.75,141.08v-3.46h8.95v8.19c-0.87,0.84-2.13,1.58-3.78,2.22c-1.65,0.64-3.32,0.96-5.02,0.96
		c-2.15,0-4.03-0.45-5.63-1.35s-2.8-2.19-3.61-3.87c-0.8-1.68-1.21-3.51-1.21-5.48c0-2.14,0.45-4.05,1.35-5.71
		c0.9-1.66,2.21-2.94,3.94-3.83c1.32-0.68,2.96-1.03,4.92-1.03c2.55,0,4.55,0.54,5.98,1.61s2.36,2.55,2.77,4.44l-4.12,0.77
		c-0.29-1.01-0.83-1.81-1.63-2.39s-1.8-0.88-3-0.88c-1.81,0-3.26,0.57-4.33,1.72s-1.61,2.86-1.61,5.12c0,2.44,0.54,4.27,1.63,5.49
		c1.08,1.22,2.51,1.83,4.26,1.83c0.87,0,1.74-0.17,2.62-0.51c0.87-0.34,1.62-0.76,2.25-1.24v-2.61H155.75z"/>
	<path class="st0" d="M178.1,141.08v-3.46h8.95v8.19c-0.87,0.84-2.13,1.58-3.78,2.22c-1.65,0.64-3.32,0.96-5.02,0.96
		c-2.15,0-4.03-0.45-5.63-1.35s-2.8-2.19-3.61-3.87c-0.8-1.68-1.21-3.51-1.21-5.48c0-2.14,0.45-4.05,1.35-5.71
		c0.9-1.66,2.21-2.94,3.94-3.83c1.32-0.68,2.96-1.03,4.92-1.03c2.55,0,4.55,0.54,5.98,1.61s2.36,2.55,2.77,4.44l-4.12,0.77
		c-0.29-1.01-0.83-1.81-1.63-2.39s-1.8-0.88-3-0.88c-1.81,0-3.26,0.57-4.33,1.72s-1.61,2.86-1.61,5.12c0,2.44,0.54,4.27,1.63,5.49
		c1.08,1.22,2.51,1.83,4.26,1.83c0.87,0,1.74-0.17,2.62-0.51c0.87-0.34,1.62-0.76,2.25-1.24v-2.61H178.1z"/>
	<path class="st0" d="M190.76,148.65v-20.57h4.15v20.57H190.76z"/>
	<path class="st0" d="M198.03,138.49c0-2.09,0.31-3.85,0.94-5.28c0.47-1.05,1.11-1.99,1.92-2.82c0.81-0.83,1.7-1.45,2.66-1.85
		c1.28-0.54,2.76-0.81,4.43-0.81c3.03,0,5.46,0.94,7.28,2.82c1.82,1.88,2.73,4.5,2.73,7.84c0,3.32-0.9,5.92-2.71,7.79
		c-1.8,1.88-4.22,2.81-7.24,2.81c-3.06,0-5.49-0.93-7.3-2.8C198.93,144.33,198.03,141.76,198.03,138.49z M202.31,138.35
		c0,2.33,0.54,4.1,1.61,5.3c1.08,1.2,2.44,1.8,4.1,1.8c1.66,0,3.01-0.6,4.08-1.79c1.06-1.19,1.59-2.98,1.59-5.37
		c0-2.36-0.52-4.12-1.55-5.28c-1.03-1.16-2.41-1.74-4.12-1.74s-3.09,0.59-4.14,1.76S202.31,135.98,202.31,138.35z"/>
</g>
</svg>
