<?xml version="1.0" encoding="utf-8"?>
<!-- Generator: Adobe Illustrator 24.0.0, SVG Export Plug-In . SVG Version: 6.00 Build 0)  -->
<svg version="1.1" id="Livello_1" xmlns="http://www.w3.org/2000/svg" xmlns:xlink="http://www.w3.org/1999/xlink" x="0px" y="0px"
	 viewBox="0 0 283.46 283.46" style="enable-background:new 0 0 283.46 283.46;" xml:space="preserve">
<style type="text/css">
	.st0{fill:#B2B2B2;}
</style>
<g>
	<path class="st0" d="M239.41,280.49H44.05c-22.65,0-41.08-18.43-41.08-41.08V44.05C2.97,21.4,21.4,2.97,44.05,2.97h195.36
		c22.65,0,41.08,18.43,41.08,41.08v195.36C280.49,262.06,262.06,280.49,239.41,280.49z M44.05,8.53
		c-19.58,0-35.52,15.93-35.52,35.52v195.36c0,19.58,15.93,35.52,35.52,35.52h195.36c19.58,0,35.52-15.93,35.52-35.52V44.05
		c0-19.58-15.93-35.52-35.52-35.52H44.05z"/>
</g>
<g>
	<path class="st0" d="M239.97,269.7H43.49c-16.39,0-29.72-13.33-29.72-29.72V43.49c0-16.39,13.33-29.72,29.72-29.72h196.49
		c16.38,0,29.72,13.33,29.72,29.72v196.49C269.7,256.36,256.36,269.7,239.97,269.7z M43.49,16.61c-14.82,0-26.88,12.06-26.88,26.88
		v196.49c0,14.82,12.06,26.88,26.88,26.88h196.48c14.83,0,26.89-12.06,26.89-26.88V43.49c0-14.82-12.06-26.88-26.88-26.88H43.49z"/>
</g>
<g>
	<g>
		<path class="st0" d="M35.62,118.85V98.28h6.67c2.53,0,4.17,0.1,4.94,0.31c1.18,0.31,2.17,0.98,2.96,2.01
			c0.79,1.04,1.19,2.37,1.19,4.01c0,1.26-0.23,2.32-0.69,3.19s-1.04,1.54-1.75,2.03s-1.42,0.82-2.15,0.97
			c-0.99,0.2-2.43,0.29-4.31,0.29h-2.71v7.76H35.62z M39.78,101.76v5.84h2.27c1.64,0,2.73-0.11,3.28-0.32
			c0.55-0.21,0.98-0.55,1.3-1.01c0.31-0.46,0.47-0.99,0.47-1.6c0-0.75-0.22-1.37-0.66-1.85c-0.44-0.49-1-0.79-1.67-0.91
			c-0.5-0.09-1.49-0.14-2.99-0.14H39.78z"/>
		<path class="st0" d="M53.45,118.85V98.28h8.74c2.2,0,3.8,0.19,4.79,0.55s1.79,1.03,2.39,1.97c0.6,0.94,0.9,2.02,0.9,3.24
			c0,1.54-0.45,2.82-1.36,3.82c-0.91,1.01-2.26,1.64-4.07,1.9c0.9,0.52,1.64,1.1,2.22,1.72c0.58,0.63,1.37,1.74,2.36,3.34l2.51,4.01
			h-4.97l-3-4.48c-1.07-1.6-1.8-2.61-2.19-3.02s-0.81-0.7-1.25-0.86c-0.44-0.15-1.14-0.23-2.09-0.23H57.6v8.59H53.45z M57.6,106.98
			h3.07c1.99,0,3.24-0.08,3.73-0.25c0.5-0.17,0.88-0.46,1.17-0.87c0.28-0.41,0.42-0.93,0.42-1.54c0-0.69-0.18-1.25-0.55-1.68
			c-0.37-0.43-0.89-0.7-1.56-0.81c-0.34-0.05-1.35-0.07-3.03-0.07H57.6V106.98z"/>
		<path class="st0" d="M91.39,118.85h-4.52l-1.8-4.67h-8.22l-1.7,4.67h-4.41l8.01-20.57h4.39L91.39,118.85z M83.74,110.71
			l-2.83-7.63l-2.78,7.63H83.74z"/>
		<path class="st0" d="M94.74,118.85v-17.09h-6.1v-3.48h16.35v3.48h-6.09v17.09H94.74z"/>
		<path class="st0" d="M106.18,118.85V98.28h4.15v20.57H106.18z"/>
		<path class="st0" d="M126.1,111.29l4.03,1.28c-0.62,2.25-1.64,3.91-3.08,5c-1.44,1.09-3.26,1.63-5.46,1.63
			c-2.73,0-4.98-0.93-6.74-2.8c-1.76-1.87-2.64-4.42-2.64-7.65c0-3.42,0.88-6.08,2.65-7.97c1.77-1.89,4.09-2.84,6.97-2.84
			c2.52,0,4.56,0.74,6.13,2.23c0.94,0.88,1.64,2.14,2.11,3.79l-4.11,0.98c-0.24-1.07-0.75-1.91-1.52-2.53
			c-0.77-0.62-1.71-0.93-2.81-0.93c-1.52,0-2.76,0.55-3.71,1.64c-0.95,1.09-1.42,2.87-1.42,5.32c0,2.6,0.47,4.45,1.4,5.56
			c0.93,1.1,2.15,1.66,3.65,1.66c1.1,0,2.05-0.35,2.85-1.05S125.76,112.79,126.1,111.29z"/>
		<path class="st0" d="M132.36,118.85V98.28h4.15v8.1h8.14v-8.1h4.15v20.57h-4.15v-8.99h-8.14v8.99H132.36z"/>
		<path class="st0" d="M151.74,118.85V98.28h15.25v3.48h-11.1v4.56h10.33v3.46H155.9v5.6h11.49v3.47H151.74z"/>
		<path class="st0" d="M193.67,118.85h-4.52l-1.8-4.67h-8.22l-1.7,4.67h-4.41l8.01-20.57h4.39L193.67,118.85z M186.03,110.71
			l-2.83-7.63l-2.78,7.63H186.03z"/>
		<path class="st0" d="M194.5,98.28h4.15v11.14c0,1.77,0.05,2.91,0.15,3.44c0.18,0.84,0.6,1.52,1.27,2.03s1.58,0.77,2.74,0.77
			c1.18,0,2.07-0.24,2.67-0.72s0.96-1.07,1.08-1.78c0.12-0.7,0.18-1.87,0.18-3.49V98.28h4.15v10.8c0,2.47-0.11,4.21-0.34,5.23
			s-0.64,1.88-1.24,2.58s-1.41,1.26-2.42,1.68c-1.01,0.42-2.33,0.62-3.96,0.62c-1.96,0-3.45-0.23-4.47-0.68s-1.82-1.04-2.41-1.77
			c-0.59-0.72-0.98-1.48-1.16-2.28c-0.27-1.18-0.41-2.92-0.41-5.22V98.28z"/>
		<path class="st0" d="M218.56,118.85v-17.09h-6.1v-3.48h16.35v3.48h-6.09v17.09H218.56z"/>
		<path class="st0" d="M228.77,108.69c0-2.1,0.31-3.85,0.94-5.28c0.47-1.05,1.11-1.99,1.92-2.82c0.81-0.83,1.7-1.45,2.66-1.85
			c1.28-0.54,2.76-0.81,4.43-0.81c3.03,0,5.46,0.94,7.28,2.82c1.82,1.88,2.73,4.49,2.73,7.84c0,3.32-0.9,5.92-2.71,7.79
			c-1.8,1.88-4.22,2.81-7.24,2.81c-3.06,0-5.49-0.93-7.3-2.8C229.67,114.53,228.77,111.96,228.77,108.69z M233.05,108.55
			c0,2.33,0.54,4.09,1.61,5.3c1.08,1.2,2.44,1.8,4.1,1.8c1.66,0,3.01-0.6,4.08-1.79s1.59-2.98,1.59-5.37c0-2.36-0.52-4.12-1.55-5.28
			s-2.41-1.74-4.12-1.74s-3.09,0.59-4.14,1.76S233.05,106.18,233.05,108.55z"/>
		<path class="st0" d="M23.14,148.65v-20.57h15.25v3.48h-11.1v4.56h10.33v3.46H27.29v5.6h11.49v3.47H23.14z"/>
		<path class="st0" d="M52.22,148.65v-17.09h-6.1v-3.48h16.35v3.48h-6.09v17.09H52.22z"/>
		<path class="st0" d="M63.8,148.65v-20.57h8.74c2.2,0,3.79,0.19,4.79,0.55s1.79,1.03,2.39,1.97c0.6,0.94,0.9,2.02,0.9,3.24
			c0,1.54-0.45,2.82-1.36,3.82c-0.91,1.01-2.26,1.64-4.07,1.9c0.9,0.52,1.64,1.1,2.22,1.72c0.58,0.63,1.37,1.74,2.36,3.34l2.51,4.01
			h-4.97l-3-4.48c-1.07-1.6-1.8-2.61-2.19-3.02c-0.39-0.42-0.81-0.7-1.25-0.86s-1.14-0.23-2.09-0.23h-0.84v8.59H63.8z M67.96,136.78
			h3.07c1.99,0,3.24-0.08,3.73-0.25c0.5-0.17,0.88-0.46,1.16-0.87c0.28-0.41,0.42-0.93,0.42-1.54c0-0.69-0.18-1.25-0.55-1.68
			c-0.37-0.43-0.89-0.7-1.56-0.81c-0.34-0.05-1.35-0.07-3.03-0.07h-3.24V136.78z"/>
		<path class="st0" d="M101.74,148.65h-4.52l-1.8-4.67H87.2l-1.7,4.67H81.1l8.01-20.57h4.39L101.74,148.65z M94.09,140.51
			l-2.83-7.63l-2.78,7.63H94.09z"/>
		<path class="st0" d="M101.54,141.95l4.04-0.39c0.24,1.36,0.74,2.35,1.48,2.99c0.74,0.64,1.75,0.96,3.01,0.96
			c1.34,0,2.34-0.28,3.02-0.85c0.68-0.57,1.02-1.23,1.02-1.99c0-0.48-0.14-0.9-0.43-1.24s-0.78-0.64-1.49-0.89
			c-0.49-0.17-1.59-0.47-3.32-0.9c-2.23-0.55-3.79-1.23-4.69-2.04c-1.26-1.13-1.89-2.51-1.89-4.14c0-1.05,0.3-2.03,0.89-2.94
			c0.59-0.91,1.45-1.61,2.57-2.08c1.12-0.48,2.47-0.71,4.05-0.71c2.58,0,4.52,0.57,5.83,1.7c1.3,1.13,1.99,2.64,2.05,4.53
			l-4.15,0.18c-0.18-1.06-0.56-1.82-1.14-2.28c-0.58-0.46-1.46-0.69-2.63-0.69c-1.21,0-2.15,0.25-2.83,0.74
			c-0.44,0.32-0.66,0.74-0.66,1.28c0,0.49,0.21,0.9,0.62,1.25c0.52,0.44,1.79,0.9,3.82,1.38c2.02,0.48,3.51,0.97,4.48,1.48
			c0.97,0.51,1.73,1.21,2.27,2.09c0.55,0.88,0.82,1.98,0.82,3.28c0,1.18-0.33,2.28-0.98,3.31s-1.58,1.79-2.78,2.29
			s-2.69,0.75-4.48,0.75c-2.6,0-4.6-0.6-5.99-1.8C102.64,146.01,101.81,144.25,101.54,141.95z"/>
		<path class="st0" d="M120.43,148.65v-20.57h14.1v3.48h-9.95v4.87h8.59v3.48h-8.59v8.74H120.43z"/>
		<path class="st0" d="M136.61,148.65v-20.57h15.25v3.48h-11.1v4.56h10.33v3.46h-10.33v5.6h11.49v3.47H136.61z"/>
		<path class="st0" d="M154.44,148.65v-20.57h8.74c2.2,0,3.79,0.19,4.79,0.55c1,0.37,1.79,1.03,2.39,1.97
			c0.6,0.94,0.9,2.02,0.9,3.24c0,1.54-0.45,2.82-1.36,3.82c-0.91,1.01-2.26,1.64-4.07,1.9c0.9,0.52,1.64,1.1,2.22,1.72
			c0.58,0.63,1.37,1.74,2.36,3.34l2.51,4.01h-4.97l-3-4.48c-1.07-1.6-1.8-2.61-2.19-3.02c-0.39-0.42-0.81-0.7-1.25-0.86
			c-0.44-0.15-1.14-0.23-2.09-0.23h-0.84v8.59H154.44z M158.59,136.78h3.07c1.99,0,3.24-0.08,3.73-0.25s0.88-0.46,1.17-0.87
			c0.28-0.41,0.42-0.93,0.42-1.54c0-0.69-0.19-1.25-0.55-1.68s-0.89-0.7-1.56-0.81c-0.34-0.05-1.35-0.07-3.03-0.07h-3.24V136.78z"/>
		<path class="st0" d="M173.7,148.65v-20.57h4.15v20.57H173.7z"/>
		<path class="st0" d="M180.4,148.65v-20.57h6.22l3.73,14.03l3.69-14.03h6.23v20.57h-3.86v-16.19l-4.08,16.19h-4l-4.07-16.19v16.19
			H180.4z"/>
		<path class="st0" d="M203.04,148.65v-20.57h15.25v3.48h-11.1v4.56h10.33v3.46H207.2v5.6h11.49v3.47H203.04z"/>
		<path class="st0" d="M220.9,148.65v-20.57h4.04l8.42,13.74v-13.74h3.86v20.57h-4.17l-8.29-13.41v13.41H220.9z"/>
		<path class="st0" d="M244.89,148.65v-17.09h-6.1v-3.48h16.35v3.48h-6.09v17.09H244.89z"/>
		<path class="st0" d="M256.33,148.65v-20.57h4.15v20.57H256.33z"/>
		<path class="st0" d="M49.03,157.88h7.59c1.71,0,3.02,0.13,3.92,0.39c1.21,0.36,2.24,0.99,3.1,1.89c0.86,0.91,1.51,2.02,1.96,3.33
			s0.67,2.94,0.67,4.86c0,1.69-0.21,3.15-0.63,4.38c-0.52,1.5-1.25,2.71-2.2,3.63c-0.72,0.7-1.69,1.25-2.92,1.64
			c-0.92,0.29-2.14,0.43-3.68,0.43h-7.82V157.88z M53.18,161.36v13.62h3.1c1.16,0,2-0.07,2.51-0.2c0.67-0.17,1.23-0.45,1.68-0.86
			s0.81-1.06,1.09-1.98c0.28-0.92,0.42-2.18,0.42-3.77s-0.14-2.81-0.42-3.66c-0.28-0.85-0.67-1.52-1.18-1.99
			c-0.51-0.48-1.15-0.8-1.92-0.97c-0.58-0.13-1.72-0.2-3.41-0.2H53.18z"/>
		<path class="st0" d="M68.32,178.45v-20.57h4.15v20.57H68.32z"/>
		<path class="st0" d="M81.71,178.45v-20.57h6.67c2.53,0,4.17,0.1,4.94,0.31c1.18,0.31,2.17,0.98,2.96,2.01s1.19,2.37,1.19,4.01
			c0,1.26-0.23,2.32-0.69,3.18c-0.46,0.86-1.04,1.54-1.75,2.03c-0.71,0.49-1.42,0.81-2.15,0.97c-0.99,0.2-2.43,0.29-4.31,0.29h-2.71
			v7.76H81.71z M85.86,161.36v5.84h2.27c1.64,0,2.73-0.11,3.28-0.32c0.55-0.21,0.98-0.55,1.3-1.01c0.31-0.46,0.47-0.99,0.47-1.6
			c0-0.75-0.22-1.37-0.66-1.85s-1-0.79-1.67-0.91c-0.5-0.09-1.49-0.14-2.99-0.14H85.86z"/>
		<path class="st0" d="M99.54,178.45v-20.57h8.74c2.2,0,3.79,0.19,4.79,0.55s1.79,1.03,2.39,1.97c0.6,0.95,0.9,2.03,0.9,3.24
			c0,1.54-0.45,2.82-1.36,3.82c-0.91,1.01-2.26,1.64-4.07,1.9c0.9,0.53,1.64,1.1,2.22,1.73s1.37,1.74,2.36,3.34l2.51,4.01h-4.97
			l-3-4.47c-1.07-1.6-1.8-2.61-2.19-3.02c-0.39-0.42-0.81-0.7-1.25-0.86s-1.14-0.23-2.09-0.23h-0.84v8.59H99.54z M103.69,166.58
			h3.07c1.99,0,3.24-0.08,3.73-0.25c0.5-0.17,0.88-0.46,1.16-0.87s0.42-0.93,0.42-1.54c0-0.69-0.18-1.25-0.55-1.68
			c-0.37-0.42-0.89-0.69-1.56-0.81c-0.34-0.04-1.35-0.07-3.03-0.07h-3.24V166.58z"/>
		<path class="st0" d="M118.08,168.29c0-2.09,0.31-3.85,0.94-5.28c0.47-1.05,1.11-1.99,1.91-2.82c0.81-0.83,1.7-1.45,2.66-1.85
			c1.28-0.54,2.76-0.81,4.43-0.81c3.03,0,5.46,0.94,7.27,2.82c1.82,1.88,2.73,4.5,2.73,7.84c0,3.32-0.9,5.92-2.71,7.79
			c-1.8,1.88-4.22,2.81-7.24,2.81c-3.06,0-5.49-0.93-7.29-2.8C118.98,174.13,118.08,171.56,118.08,168.29z M122.36,168.15
			c0,2.33,0.54,4.1,1.61,5.3c1.08,1.2,2.44,1.8,4.1,1.8c1.66,0,3.01-0.6,4.08-1.79c1.06-1.19,1.59-2.98,1.59-5.37
			c0-2.36-0.52-4.12-1.55-5.28c-1.03-1.16-2.41-1.74-4.12-1.74c-1.71,0-3.09,0.59-4.14,1.76
			C122.88,164.01,122.36,165.78,122.36,168.15z"/>
		<path class="st0" d="M139.92,178.45v-20.57h6.66c2.53,0,4.17,0.1,4.94,0.31c1.18,0.31,2.17,0.98,2.96,2.01s1.19,2.37,1.19,4.01
			c0,1.26-0.23,2.32-0.69,3.18c-0.46,0.86-1.04,1.54-1.75,2.03c-0.71,0.49-1.42,0.81-2.15,0.97c-0.99,0.2-2.43,0.29-4.31,0.29h-2.71
			v7.76H139.92z M144.08,161.36v5.84h2.27c1.64,0,2.73-0.11,3.28-0.32c0.55-0.21,0.98-0.55,1.3-1.01c0.31-0.46,0.47-0.99,0.47-1.6
			c0-0.75-0.22-1.37-0.66-1.85s-1-0.79-1.67-0.91c-0.5-0.09-1.49-0.14-2.99-0.14H144.08z"/>
		<path class="st0" d="M157.75,178.45v-20.57h8.74c2.2,0,3.79,0.19,4.79,0.55c1,0.37,1.79,1.03,2.39,1.97s0.9,2.03,0.9,3.24
			c0,1.54-0.45,2.82-1.36,3.82s-2.26,1.64-4.07,1.9c0.9,0.53,1.64,1.1,2.22,1.73c0.58,0.63,1.37,1.74,2.36,3.34l2.51,4.01h-4.97
			l-3-4.47c-1.07-1.6-1.8-2.61-2.19-3.02c-0.39-0.42-0.81-0.7-1.25-0.86c-0.44-0.15-1.14-0.23-2.09-0.23h-0.84v8.59H157.75z
			 M161.91,166.58h3.07c1.99,0,3.24-0.08,3.73-0.25c0.5-0.17,0.88-0.46,1.17-0.87c0.28-0.41,0.42-0.93,0.42-1.54
			c0-0.69-0.19-1.25-0.55-1.68c-0.37-0.42-0.89-0.69-1.56-0.81c-0.34-0.04-1.35-0.07-3.03-0.07h-3.24V166.58z"/>
		<path class="st0" d="M177.01,178.45v-20.57h4.15v20.57H177.01z"/>
		<path class="st0" d="M183.77,178.45v-20.57h15.25v3.48h-11.1v4.56h10.33v3.47h-10.33v5.6h11.49v3.46H183.77z"/>
		<path class="st0" d="M206.22,178.45v-17.09h-6.1v-3.48h16.35v3.48h-6.09v17.09H206.22z"/>
		<path class="st0" d="M236.34,178.45h-4.52l-1.8-4.67h-8.22l-1.7,4.67h-4.41l8.01-20.57h4.39L236.34,178.45z M228.2,156.7h-2.48
			l-3.87-4.2h4.42L228.2,156.7z M228.69,170.31l-2.83-7.63l-2.78,7.63H228.69z"/>
	</g>
</g>
</svg>
