<?xml version="1.0" encoding="utf-8"?>
<!-- Generator: Adobe Illustrator 24.0.0, SVG Export Plug-In . SVG Version: 6.00 Build 0)  -->
<svg version="1.1" id="Livello_1" xmlns="http://www.w3.org/2000/svg" xmlns:xlink="http://www.w3.org/1999/xlink" x="0px" y="0px"
	 viewBox="0 0 283.46 283.46" style="enable-background:new 0 0 283.46 283.46;" xml:space="preserve">
<style type="text/css">
	.st0{fill:#010045;}
</style>
<g>
	<path class="st0" d="M239.41,280.49H44.05c-22.65,0-41.08-18.43-41.08-41.08V44.05C2.97,21.4,21.4,2.97,44.05,2.97h195.36
		c22.65,0,41.08,18.43,41.08,41.08v195.36C280.49,262.06,262.06,280.49,239.41,280.49z M44.05,8.53
		c-19.58,0-35.52,15.93-35.52,35.52v195.36c0,19.58,15.93,35.52,35.52,35.52h195.36c19.58,0,35.52-15.93,35.52-35.52V44.05
		c0-19.58-15.93-35.52-35.52-35.52H44.05z"/>
</g>
<g>
	<path class="st0" d="M239.97,269.7H43.49c-16.39,0-29.72-13.33-29.72-29.72V43.49c0-16.39,13.33-29.72,29.72-29.72h196.49
		c16.38,0,29.72,13.33,29.72,29.72v196.49C269.7,256.36,256.36,269.7,239.97,269.7z M43.49,16.61c-14.82,0-26.88,12.06-26.88,26.88
		v196.49c0,14.82,12.06,26.88,26.88,26.88h196.48c14.83,0,26.89-12.06,26.89-26.88V43.49c0-14.82-12.06-26.88-26.88-26.88H43.49z"/>
</g>
<g>
	<path class="st0" d="M71.42,133.75v-20.57h6.67c2.53,0,4.17,0.1,4.94,0.31c1.18,0.31,2.17,0.98,2.96,2.01
		c0.79,1.03,1.19,2.37,1.19,4.01c0,1.26-0.23,2.32-0.69,3.18c-0.46,0.86-1.04,1.54-1.75,2.03c-0.71,0.49-1.42,0.82-2.15,0.97
		c-0.99,0.2-2.43,0.29-4.31,0.29h-2.71v7.76H71.42z M75.57,116.66v5.84h2.27c1.64,0,2.73-0.11,3.28-0.32
		c0.55-0.21,0.98-0.55,1.3-1.01c0.31-0.46,0.47-0.99,0.47-1.6c0-0.75-0.22-1.37-0.66-1.85s-1-0.79-1.67-0.91
		c-0.5-0.09-1.49-0.14-2.99-0.14H75.57z"/>
	<path class="st0" d="M90.6,133.75v-20.57h8.74c2.2,0,3.8,0.19,4.79,0.55s1.79,1.03,2.39,1.97c0.6,0.94,0.9,2.02,0.9,3.24
		c0,1.54-0.45,2.82-1.36,3.82c-0.91,1.01-2.26,1.64-4.07,1.9c0.9,0.52,1.64,1.1,2.22,1.73c0.58,0.63,1.37,1.74,2.36,3.34l2.51,4.01
		h-4.97l-3-4.48c-1.07-1.6-1.8-2.61-2.19-3.02s-0.81-0.7-1.25-0.86c-0.44-0.15-1.14-0.23-2.09-0.23h-0.84v8.59H90.6z M94.75,121.88
		h3.07c1.99,0,3.24-0.08,3.73-0.25c0.5-0.17,0.88-0.46,1.17-0.87c0.28-0.41,0.42-0.93,0.42-1.54c0-0.69-0.18-1.25-0.55-1.68
		c-0.37-0.42-0.89-0.69-1.56-0.81c-0.34-0.05-1.35-0.07-3.03-0.07h-3.24V121.88z"/>
	<path class="st0" d="M129.89,133.75h-4.52l-1.8-4.67h-8.22l-1.7,4.67h-4.41l8.01-20.57h4.39L129.89,133.75z M122.24,125.61
		l-2.83-7.63l-2.78,7.63H122.24z"/>
	<path class="st0" d="M134.59,133.75v-17.09h-6.1v-3.48h16.35v3.48h-6.09v17.09H134.59z"/>
	<path class="st0" d="M147.38,133.75v-20.57h4.15v20.57H147.38z"/>
	<path class="st0" d="M168.65,126.19l4.03,1.28c-0.62,2.25-1.64,3.91-3.08,5c-1.44,1.09-3.26,1.63-5.46,1.63
		c-2.73,0-4.98-0.93-6.73-2.8c-1.76-1.87-2.64-4.42-2.64-7.65c0-3.42,0.88-6.08,2.65-7.98c1.77-1.89,4.09-2.84,6.97-2.84
		c2.52,0,4.56,0.74,6.13,2.23c0.94,0.88,1.64,2.14,2.1,3.79l-4.11,0.98c-0.24-1.07-0.75-1.91-1.52-2.53
		c-0.77-0.62-1.71-0.93-2.81-0.93c-1.52,0-2.76,0.55-3.71,1.64s-1.42,2.87-1.42,5.32c0,2.6,0.47,4.45,1.4,5.56
		c0.94,1.1,2.15,1.66,3.65,1.66c1.1,0,2.05-0.35,2.85-1.05C167.74,128.79,168.31,127.69,168.65,126.19z"/>
	<path class="st0" d="M176.26,133.75v-20.57h4.15v8.1h8.14v-8.1h4.15v20.57h-4.15v-8.99h-8.14v8.99H176.26z"/>
	<path class="st0" d="M197,133.75v-20.57h15.25v3.48h-11.1v4.56h10.33v3.47h-10.33v5.6h11.49v3.47H197z"/>
	<path class="st0" d="M121.9,163.55h-4.52l-1.8-4.67h-8.22l-1.7,4.67h-4.41l8.01-20.57h4.39L121.9,163.55z M114.25,155.41
		l-2.83-7.63l-2.78,7.63H114.25z"/>
	<path class="st0" d="M124.07,142.98h4.15v11.14c0,1.77,0.05,2.91,0.15,3.44c0.18,0.84,0.6,1.52,1.27,2.03s1.58,0.76,2.74,0.76
		c1.18,0,2.07-0.24,2.67-0.72c0.6-0.48,0.96-1.07,1.08-1.77c0.12-0.7,0.18-1.87,0.18-3.49v-11.38h4.15v10.8
		c0,2.47-0.11,4.21-0.34,5.23s-0.64,1.88-1.24,2.58s-1.41,1.26-2.42,1.68s-2.33,0.62-3.96,0.62c-1.96,0-3.45-0.23-4.47-0.68
		c-1.01-0.45-1.82-1.04-2.41-1.77s-0.98-1.48-1.16-2.28c-0.27-1.18-0.41-2.92-0.41-5.22V142.98z"/>
	<path class="st0" d="M149.48,163.55v-17.09h-6.1v-3.48h16.35v3.48h-6.09v17.09H149.48z"/>
	<path class="st0" d="M161.04,153.39c0-2.09,0.31-3.85,0.94-5.28c0.47-1.05,1.11-1.99,1.92-2.82c0.81-0.83,1.7-1.45,2.66-1.85
		c1.28-0.54,2.76-0.81,4.43-0.81c3.03,0,5.46,0.94,7.28,2.82s2.73,4.5,2.73,7.84c0,3.32-0.9,5.92-2.71,7.79
		c-1.8,1.88-4.22,2.81-7.24,2.81c-3.06,0-5.49-0.93-7.3-2.8C161.94,159.23,161.04,156.66,161.04,153.39z M165.32,153.25
		c0,2.33,0.54,4.09,1.61,5.3c1.08,1.2,2.44,1.8,4.1,1.8c1.66,0,3.01-0.6,4.08-1.79c1.06-1.19,1.59-2.98,1.59-5.37
		c0-2.36-0.52-4.12-1.55-5.28c-1.03-1.16-2.41-1.74-4.12-1.74s-3.09,0.59-4.14,1.76S165.32,150.88,165.32,153.25z"/>
</g>
</svg>
