<?xml version="1.0" encoding="utf-8"?>
<!-- Generator: Adobe Illustrator 24.0.0, SVG Export Plug-In . SVG Version: 6.00 Build 0)  -->
<svg version="1.1" id="Livello_1" xmlns="http://www.w3.org/2000/svg" xmlns:xlink="http://www.w3.org/1999/xlink" x="0px" y="0px"
	 viewBox="0 0 283.46 283.46" style="enable-background:new 0 0 283.46 283.46;" xml:space="preserve">
<style type="text/css">
	.st0{fill:#B2B2B2;}
</style>
<g>
	<path class="st0" d="M239.41,280.49H44.05c-22.65,0-41.08-18.43-41.08-41.08V44.05C2.97,21.4,21.4,2.97,44.05,2.97h195.36
		c22.65,0,41.08,18.43,41.08,41.08v195.36C280.49,262.06,262.06,280.49,239.41,280.49z M44.05,8.53
		c-19.58,0-35.52,15.93-35.52,35.52v195.36c0,19.58,15.93,35.52,35.52,35.52h195.36c19.58,0,35.52-15.93,35.52-35.52V44.05
		c0-19.58-15.93-35.52-35.52-35.52H44.05z"/>
</g>
<g>
	<path class="st0" d="M239.97,269.7H43.49c-16.39,0-29.72-13.33-29.72-29.72V43.49c0-16.39,13.33-29.72,29.72-29.72h196.49
		c16.38,0,29.72,13.33,29.72,29.72v196.49C269.7,256.36,256.36,269.7,239.97,269.7z M43.49,16.61c-14.82,0-26.88,12.06-26.88,26.88
		v196.49c0,14.82,12.06,26.88,26.88,26.88h196.48c14.83,0,26.89-12.06,26.89-26.88V43.49c0-14.82-12.06-26.88-26.88-26.88H43.49z"/>
</g>
<g>
	<g>
		<path class="st0" d="M30.71,133.75v-20.57h6.66c2.53,0,4.17,0.1,4.94,0.31c1.18,0.31,2.17,0.98,2.96,2.01
			c0.79,1.03,1.19,2.37,1.19,4.01c0,1.26-0.23,2.32-0.69,3.18c-0.46,0.86-1.04,1.54-1.75,2.03c-0.71,0.49-1.42,0.82-2.15,0.97
			c-0.99,0.2-2.43,0.29-4.31,0.29h-2.71v7.76H30.71z M34.86,116.66v5.84h2.27c1.64,0,2.73-0.11,3.28-0.32
			c0.55-0.21,0.98-0.55,1.3-1.01c0.31-0.46,0.47-0.99,0.47-1.6c0-0.75-0.22-1.37-0.66-1.85c-0.44-0.49-1-0.79-1.67-0.91
			c-0.5-0.09-1.49-0.14-2.99-0.14H34.86z"/>
		<path class="st0" d="M49.89,133.75v-20.57h8.74c2.2,0,3.8,0.19,4.79,0.55c1,0.37,1.79,1.03,2.39,1.97c0.6,0.94,0.9,2.02,0.9,3.24
			c0,1.54-0.45,2.82-1.36,3.82c-0.91,1.01-2.26,1.64-4.07,1.9c0.9,0.52,1.64,1.1,2.22,1.73c0.58,0.63,1.37,1.74,2.36,3.34l2.51,4.01
			h-4.97l-3-4.48c-1.07-1.6-1.8-2.61-2.19-3.02s-0.81-0.7-1.25-0.86s-1.14-0.23-2.09-0.23h-0.84v8.59H49.89z M54.04,121.88h3.07
			c1.99,0,3.24-0.08,3.73-0.25c0.5-0.17,0.88-0.46,1.17-0.87c0.28-0.41,0.42-0.93,0.42-1.54c0-0.69-0.18-1.25-0.55-1.68
			c-0.37-0.42-0.89-0.69-1.56-0.81c-0.34-0.05-1.35-0.07-3.03-0.07h-3.24V121.88z"/>
		<path class="st0" d="M70.63,133.75v-20.57h15.25v3.48h-11.1v4.56h10.33v3.47H74.78v5.6h11.49v3.47H70.63z"/>
		<path class="st0" d="M89.83,133.75v-20.57h4.04l8.42,13.74v-13.74h3.86v20.57h-4.17l-8.29-13.41v13.41H89.83z"/>
		<path class="st0" d="M109.7,123.59c0-2.09,0.31-3.85,0.94-5.28c0.47-1.05,1.11-1.99,1.92-2.82c0.81-0.83,1.7-1.45,2.66-1.85
			c1.28-0.54,2.76-0.81,4.43-0.81c3.03,0,5.46,0.94,7.28,2.82s2.73,4.5,2.73,7.84c0,3.32-0.9,5.92-2.71,7.79
			c-1.81,1.88-4.22,2.81-7.24,2.81c-3.06,0-5.49-0.93-7.3-2.8S109.7,126.86,109.7,123.59z M113.98,123.45c0,2.33,0.54,4.09,1.61,5.3
			c1.08,1.2,2.44,1.8,4.1,1.8c1.66,0,3.01-0.6,4.08-1.79c1.06-1.19,1.59-2.98,1.59-5.37c0-2.36-0.52-4.12-1.55-5.28
			c-1.03-1.16-2.41-1.74-4.12-1.74c-1.71,0-3.09,0.59-4.14,1.76C114.5,119.31,113.98,121.08,113.98,123.45z"/>
		<path class="st0" d="M137.52,133.75v-17.09h-6.1v-3.48h16.35v3.48h-6.09v17.09H137.52z"/>
		<path class="st0" d="M166.86,133.75h-4.52l-1.79-4.67h-8.22l-1.7,4.67h-4.41l8.01-20.57h4.39L166.86,133.75z M159.22,125.61
			l-2.83-7.63l-2.78,7.63H159.22z"/>
		<path class="st0" d="M167.28,133.75V130l10.8-13.34h-9.58v-3.48h15.05v3.23l-11.27,13.88h11.7v3.47H167.28z"/>
		<path class="st0" d="M186.49,133.75v-20.57h4.15v20.57H186.49z"/>
		<path class="st0" d="M193.76,123.59c0-2.09,0.31-3.85,0.94-5.28c0.47-1.05,1.11-1.99,1.91-2.82c0.81-0.83,1.7-1.45,2.66-1.85
			c1.28-0.54,2.76-0.81,4.43-0.81c3.03,0,5.46,0.94,7.28,2.82c1.82,1.88,2.73,4.5,2.73,7.84c0,3.32-0.9,5.92-2.71,7.79
			c-1.8,1.88-4.22,2.81-7.24,2.81c-3.06,0-5.49-0.93-7.3-2.8S193.76,126.86,193.76,123.59z M198.04,123.45
			c0,2.33,0.54,4.09,1.61,5.3c1.07,1.2,2.44,1.8,4.1,1.8c1.66,0,3.02-0.6,4.08-1.79c1.06-1.19,1.59-2.98,1.59-5.37
			c0-2.36-0.52-4.12-1.55-5.28c-1.03-1.16-2.41-1.74-4.12-1.74c-1.71,0-3.09,0.59-4.14,1.76
			C198.56,119.31,198.04,121.08,198.04,123.45z"/>
		<path class="st0" d="M216.99,133.75v-20.57h4.04l8.42,13.74v-13.74h3.86v20.57h-4.17l-8.29-13.41v13.41H216.99z"/>
		<path class="st0" d="M237.7,133.75v-20.57h15.25v3.48h-11.1v4.56h10.33v3.47h-10.33v5.6h11.49v3.47H237.7z"/>
		<path class="st0" d="M66.12,156.85l4.04-0.39c0.24,1.36,0.74,2.35,1.48,2.99c0.74,0.64,1.75,0.95,3.01,0.95
			c1.34,0,2.34-0.28,3.02-0.85c0.68-0.57,1.02-1.23,1.02-1.99c0-0.49-0.14-0.9-0.43-1.24s-0.78-0.64-1.49-0.89
			c-0.49-0.17-1.59-0.47-3.32-0.9c-2.23-0.55-3.79-1.23-4.69-2.03c-1.26-1.13-1.89-2.51-1.89-4.14c0-1.05,0.3-2.03,0.89-2.94
			c0.59-0.91,1.45-1.61,2.57-2.08c1.12-0.48,2.47-0.72,4.05-0.72c2.58,0,4.52,0.57,5.83,1.7c1.3,1.13,1.99,2.64,2.05,4.53
			l-4.15,0.18c-0.18-1.06-0.56-1.82-1.14-2.28c-0.58-0.46-1.46-0.69-2.63-0.69c-1.21,0-2.15,0.25-2.83,0.74
			c-0.44,0.32-0.66,0.74-0.66,1.28c0,0.49,0.21,0.9,0.62,1.25c0.52,0.44,1.79,0.9,3.82,1.38c2.02,0.48,3.51,0.97,4.48,1.48
			c0.97,0.51,1.73,1.21,2.27,2.09c0.55,0.88,0.82,1.98,0.82,3.28c0,1.18-0.33,2.28-0.98,3.31s-1.58,1.79-2.78,2.29
			s-2.69,0.75-4.48,0.75c-2.6,0-4.6-0.6-5.99-1.8C67.22,160.91,66.39,159.15,66.12,156.85z"/>
		<path class="st0" d="M104.88,163.55h-4.52l-1.79-4.67h-8.22l-1.7,4.67h-4.41l8.01-20.57h4.39L104.88,163.55z M97.23,155.41
			l-2.83-7.63l-2.78,7.63H97.23z"/>
		<path class="st0" d="M107.13,163.55v-20.57h4.04l8.42,13.74v-13.74h3.86v20.57h-4.17l-8.29-13.41v13.41H107.13z"/>
		<path class="st0" d="M127.71,163.55v-20.57h4.15v20.57H127.71z"/>
		<path class="st0" d="M140.45,163.55v-17.09h-6.1v-3.48h16.35v3.48h-6.09v17.09H140.45z"/>
		<path class="st0" d="M169.79,163.55h-4.52l-1.79-4.67h-8.22l-1.7,4.67h-4.41l8.01-20.57h4.39L169.79,163.55z M162.14,155.41
			l-2.83-7.63l-2.78,7.63H162.14z"/>
		<path class="st0" d="M172,163.55v-20.57h8.74c2.2,0,3.79,0.19,4.79,0.55s1.79,1.03,2.39,1.97c0.6,0.94,0.9,2.02,0.9,3.24
			c0,1.54-0.46,2.82-1.36,3.82c-0.91,1.01-2.26,1.64-4.07,1.9c0.9,0.52,1.64,1.1,2.22,1.73c0.58,0.63,1.37,1.74,2.37,3.34l2.51,4.01
			h-4.97l-3-4.48c-1.07-1.6-1.79-2.61-2.19-3.02c-0.39-0.42-0.81-0.7-1.25-0.86s-1.14-0.23-2.09-0.23h-0.84v8.59H172z
			 M176.16,151.68h3.07c1.99,0,3.24-0.08,3.73-0.25c0.5-0.17,0.88-0.46,1.16-0.87c0.28-0.41,0.42-0.93,0.42-1.54
			c0-0.69-0.19-1.25-0.55-1.68c-0.37-0.42-0.89-0.69-1.56-0.81c-0.34-0.05-1.35-0.07-3.03-0.07h-3.24V151.68z"/>
		<path class="st0" d="M192.62,163.55v-20.57h4.15v20.57H192.62z"/>
		<path class="st0" d="M219.27,163.55h-4.52l-1.8-4.67h-8.22l-1.7,4.67h-4.4l8.01-20.57h4.39L219.27,163.55z M211.63,155.41
			l-2.83-7.63l-2.78,7.63H211.63z"/>
	</g>
</g>
</svg>
