<?xml version="1.0" encoding="utf-8"?>
<!-- Generator: Adobe Illustrator 24.0.0, SVG Export Plug-In . SVG Version: 6.00 Build 0)  -->
<svg version="1.1" id="Livello_1" xmlns="http://www.w3.org/2000/svg" xmlns:xlink="http://www.w3.org/1999/xlink" x="0px" y="0px"
	 viewBox="0 0 283.46 283.46" style="enable-background:new 0 0 283.46 283.46;" xml:space="preserve">
<style type="text/css">
	.st0{fill:#B2B2B2;}
</style>
<g>
	<path class="st0" d="M239.41,280.49H44.05c-22.65,0-41.08-18.43-41.08-41.08V44.05C2.97,21.4,21.4,2.97,44.05,2.97h195.36
		c22.65,0,41.08,18.43,41.08,41.08v195.36C280.49,262.06,262.06,280.49,239.41,280.49z M44.05,8.53
		c-19.58,0-35.52,15.93-35.52,35.52v195.36c0,19.58,15.93,35.52,35.52,35.52h195.36c19.58,0,35.52-15.93,35.52-35.52V44.05
		c0-19.58-15.93-35.52-35.52-35.52H44.05z"/>
</g>
<g>
	<path class="st0" d="M239.97,269.7H43.49c-16.39,0-29.72-13.33-29.72-29.72V43.49c0-16.39,13.33-29.72,29.72-29.72h196.49
		c16.38,0,29.72,13.33,29.72,29.72v196.49C269.7,256.36,256.36,269.7,239.97,269.7z M43.49,16.61c-14.82,0-26.88,12.06-26.88,26.88
		v196.49c0,14.82,12.06,26.88,26.88,26.88h196.48c14.83,0,26.89-12.06,26.89-26.88V43.49c0-14.82-12.06-26.88-26.88-26.88H43.49z"/>
</g>
<g>
	<g>
		<path class="st0" d="M23.82,127.06l4.04-0.39c0.24,1.36,0.74,2.35,1.48,2.99c0.74,0.64,1.75,0.95,3.01,0.95
			c1.34,0,2.35-0.28,3.02-0.85c0.68-0.57,1.02-1.23,1.02-1.99c0-0.49-0.14-0.9-0.43-1.24s-0.78-0.64-1.49-0.89
			c-0.49-0.17-1.6-0.47-3.33-0.9c-2.23-0.55-3.79-1.23-4.69-2.03c-1.26-1.13-1.89-2.51-1.89-4.14c0-1.05,0.3-2.03,0.89-2.94
			c0.59-0.91,1.45-1.61,2.57-2.08c1.12-0.48,2.47-0.72,4.05-0.72c2.58,0,4.53,0.57,5.83,1.7s1.99,2.64,2.06,4.53l-4.15,0.18
			c-0.18-1.06-0.56-1.82-1.14-2.28c-0.58-0.46-1.46-0.69-2.63-0.69c-1.21,0-2.15,0.25-2.83,0.74c-0.44,0.32-0.66,0.74-0.66,1.28
			c0,0.49,0.21,0.9,0.62,1.25c0.52,0.44,1.8,0.9,3.82,1.38c2.02,0.48,3.52,0.97,4.48,1.48c0.97,0.51,1.73,1.21,2.27,2.09
			s0.82,1.98,0.82,3.28c0,1.18-0.33,2.28-0.98,3.31s-1.58,1.79-2.78,2.29s-2.69,0.75-4.48,0.75c-2.6,0-4.6-0.6-5.99-1.8
			C24.92,131.11,24.09,129.36,23.82,127.06z"/>
		<path class="st0" d="M56.05,126.19l4.03,1.28c-0.62,2.25-1.64,3.91-3.08,5c-1.44,1.09-3.26,1.63-5.46,1.63
			c-2.73,0-4.98-0.93-6.74-2.8s-2.64-4.42-2.64-7.65c0-3.42,0.88-6.08,2.65-7.98c1.77-1.89,4.09-2.84,6.97-2.84
			c2.52,0,4.56,0.74,6.13,2.23c0.94,0.88,1.64,2.14,2.11,3.79l-4.11,0.98c-0.24-1.07-0.75-1.91-1.52-2.53
			c-0.77-0.62-1.71-0.93-2.81-0.93c-1.52,0-2.76,0.55-3.71,1.64s-1.42,2.87-1.42,5.32c0,2.6,0.47,4.45,1.4,5.56
			c0.93,1.1,2.15,1.66,3.65,1.66c1.1,0,2.05-0.35,2.85-1.05C55.13,128.79,55.7,127.69,56.05,126.19z"/>
		<path class="st0" d="M62.46,113.18h4.15v11.14c0,1.77,0.05,2.91,0.15,3.44c0.18,0.84,0.6,1.52,1.27,2.03s1.58,0.76,2.74,0.76
			c1.18,0,2.07-0.24,2.67-0.72c0.6-0.48,0.96-1.07,1.08-1.77c0.12-0.7,0.18-1.87,0.18-3.49v-11.38h4.15v10.8
			c0,2.47-0.11,4.21-0.34,5.23s-0.64,1.88-1.24,2.58s-1.41,1.26-2.42,1.68s-2.33,0.62-3.96,0.62c-1.96,0-3.45-0.23-4.47-0.68
			c-1.01-0.45-1.82-1.04-2.41-1.77s-0.98-1.48-1.16-2.28c-0.27-1.18-0.41-2.92-0.41-5.22V113.18z"/>
		<path class="st0" d="M81.25,123.59c0-2.09,0.31-3.85,0.94-5.28c0.47-1.05,1.11-1.99,1.92-2.82c0.81-0.83,1.7-1.45,2.66-1.85
			c1.28-0.54,2.76-0.81,4.43-0.81c3.03,0,5.46,0.94,7.28,2.82s2.73,4.5,2.73,7.84c0,3.32-0.9,5.92-2.71,7.79
			c-1.81,1.88-4.22,2.81-7.24,2.81c-3.06,0-5.49-0.93-7.3-2.8S81.25,126.86,81.25,123.59z M85.53,123.45c0,2.33,0.54,4.09,1.61,5.3
			c1.08,1.2,2.44,1.8,4.1,1.8c1.66,0,3.01-0.6,4.08-1.79c1.06-1.19,1.59-2.98,1.59-5.37c0-2.36-0.52-4.12-1.55-5.28
			c-1.03-1.16-2.41-1.74-4.12-1.74c-1.71,0-3.09,0.59-4.14,1.76C86.05,119.31,85.53,121.08,85.53,123.45z"/>
		<path class="st0" d="M103.41,133.75v-20.4h4.15v16.93h10.33v3.47H103.41z"/>
		<path class="st0" d="M138.24,133.75h-4.52l-1.8-4.67h-8.22l-1.7,4.67h-4.41l8.01-20.57h4.39L138.24,133.75z M130.6,125.61
			l-2.83-7.63l-2.78,7.63H130.6z"/>
		<path class="st0" d="M145.07,133.75v-20.57h15.25v3.48h-11.1v4.56h10.33v3.47h-10.33v5.6h11.49v3.47H145.07z"/>
		<path class="st0" d="M163.07,113.18h7.59c1.71,0,3.02,0.13,3.92,0.39c1.21,0.36,2.24,0.99,3.1,1.89c0.86,0.91,1.52,2.02,1.96,3.33
			c0.45,1.31,0.67,2.93,0.67,4.86c0,1.69-0.21,3.15-0.63,4.38c-0.51,1.5-1.25,2.71-2.2,3.63c-0.72,0.7-1.69,1.25-2.92,1.64
			c-0.92,0.29-2.14,0.43-3.68,0.43h-7.81V113.18z M167.22,116.66v13.62h3.1c1.16,0,2-0.07,2.51-0.2c0.67-0.17,1.23-0.45,1.68-0.86
			c0.45-0.4,0.81-1.06,1.09-1.99c0.28-0.92,0.42-2.18,0.42-3.77c0-1.59-0.14-2.81-0.42-3.66c-0.28-0.85-0.67-1.52-1.18-1.99
			c-0.51-0.48-1.15-0.8-1.92-0.97c-0.58-0.13-1.71-0.2-3.41-0.2H167.22z"/>
		<path class="st0" d="M189.52,133.75v-20.57h15.25v3.48h-11.1v4.56H204v3.47h-10.33v5.6h11.49v3.47H189.52z"/>
		<path class="st0" d="M207.58,133.75v-20.57h4.04l8.42,13.74v-13.74h3.86v20.57h-4.17l-8.29-13.41v13.41H207.58z"/>
		<path class="st0" d="M231.77,133.75v-17.09h-6.1v-3.48h16.35v3.48h-6.09v17.09H231.77z"/>
		<path class="st0" d="M243.54,133.75v-20.57h15.25v3.48h-11.1v4.56h10.33v3.47h-10.33v5.6h11.49v3.47H243.54z"/>
		<path class="st0" d="M35.74,142.98h7.59c1.71,0,3.02,0.13,3.92,0.39c1.21,0.36,2.24,0.99,3.1,1.89s1.51,2.02,1.96,3.33
			c0.45,1.31,0.67,2.93,0.67,4.86c0,1.69-0.21,3.15-0.63,4.38c-0.52,1.5-1.25,2.71-2.2,3.63c-0.72,0.7-1.69,1.25-2.92,1.64
			c-0.92,0.29-2.14,0.43-3.68,0.43h-7.82V142.98z M39.89,146.46v13.62h3.1c1.16,0,2-0.07,2.51-0.2c0.67-0.17,1.23-0.45,1.68-0.86
			s0.81-1.06,1.09-1.99c0.28-0.92,0.42-2.18,0.42-3.77c0-1.59-0.14-2.81-0.42-3.66c-0.28-0.85-0.67-1.52-1.18-1.99
			c-0.51-0.48-1.15-0.8-1.92-0.97c-0.58-0.13-1.72-0.2-3.41-0.2H39.89z"/>
		<path class="st0" d="M55.23,163.55v-20.57h4.15v20.57H55.23z"/>
		<path class="st0" d="M69.05,163.55v-20.57h14.1v3.48H73.2v4.87h8.59v3.48H73.2v8.74H69.05z"/>
		<path class="st0" d="M84.58,153.39c0-2.09,0.31-3.85,0.94-5.28c0.47-1.05,1.11-1.99,1.92-2.82c0.81-0.83,1.7-1.45,2.66-1.85
			c1.28-0.54,2.76-0.81,4.43-0.81c3.03,0,5.46,0.94,7.28,2.82c1.82,1.88,2.73,4.5,2.73,7.84c0,3.32-0.9,5.92-2.71,7.79
			c-1.81,1.88-4.22,2.81-7.24,2.81c-3.06,0-5.49-0.93-7.3-2.8C85.49,159.23,84.58,156.66,84.58,153.39z M88.86,153.25
			c0,2.33,0.54,4.09,1.61,5.3s2.44,1.8,4.1,1.8c1.65,0,3.01-0.6,4.08-1.79c1.06-1.19,1.59-2.98,1.59-5.37
			c0-2.36-0.52-4.12-1.55-5.28c-1.03-1.16-2.41-1.74-4.12-1.74c-1.71,0-3.09,0.59-4.14,1.76S88.86,150.88,88.86,153.25z"/>
		<path class="st0" d="M106.64,163.55v-20.57h8.74c2.2,0,3.79,0.19,4.79,0.55s1.79,1.03,2.39,1.97c0.6,0.94,0.9,2.02,0.9,3.24
			c0,1.54-0.45,2.82-1.36,3.82c-0.91,1.01-2.26,1.64-4.07,1.9c0.9,0.52,1.64,1.1,2.22,1.73c0.58,0.63,1.37,1.74,2.36,3.34l2.51,4.01
			h-4.97l-3-4.48c-1.07-1.6-1.8-2.61-2.19-3.02c-0.39-0.42-0.81-0.7-1.25-0.86s-1.14-0.23-2.09-0.23h-0.84v8.59H106.64z
			 M110.79,151.68h3.07c1.99,0,3.24-0.08,3.73-0.25c0.5-0.17,0.88-0.46,1.16-0.87c0.28-0.41,0.42-0.93,0.42-1.54
			c0-0.69-0.18-1.25-0.55-1.68c-0.37-0.42-0.89-0.69-1.56-0.81c-0.34-0.05-1.35-0.07-3.03-0.07h-3.24V151.68z"/>
		<path class="st0" d="M126.17,163.55v-20.57h6.21l3.73,14.03l3.69-14.03h6.23v20.57h-3.86v-16.19l-4.08,16.19h-4l-4.07-16.19v16.19
			H126.17z"/>
		<path class="st0" d="M167.56,163.55h-4.52l-1.8-4.67h-8.22l-1.7,4.67h-4.4l8.01-20.57h4.39L167.56,163.55z M159.92,155.41
			l-2.83-7.63l-2.78,7.63H159.92z"/>
		<path class="st0" d="M166.84,163.55v-3.75l10.8-13.34h-9.58v-3.48h15.05v3.23l-11.27,13.88h11.7v3.47H166.84z"/>
		<path class="st0" d="M184.89,163.55v-20.57h4.15v20.57H184.89z"/>
		<path class="st0" d="M191.01,153.39c0-2.09,0.31-3.85,0.94-5.28c0.47-1.05,1.11-1.99,1.91-2.82c0.81-0.83,1.7-1.45,2.66-1.85
			c1.28-0.54,2.76-0.81,4.43-0.81c3.03,0,5.46,0.94,7.28,2.82c1.82,1.88,2.73,4.5,2.73,7.84c0,3.32-0.9,5.92-2.71,7.79
			c-1.8,1.88-4.22,2.81-7.24,2.81c-3.06,0-5.49-0.93-7.3-2.8S191.01,156.66,191.01,153.39z M195.29,153.25
			c0,2.33,0.54,4.09,1.61,5.3c1.07,1.2,2.44,1.8,4.1,1.8c1.66,0,3.02-0.6,4.08-1.79c1.06-1.19,1.59-2.98,1.59-5.37
			c0-2.36-0.52-4.12-1.55-5.28c-1.03-1.16-2.41-1.74-4.12-1.74c-1.71,0-3.09,0.59-4.14,1.76
			C195.82,149.11,195.29,150.88,195.29,153.25z"/>
		<path class="st0" d="M213.1,163.55v-20.57h4.04l8.42,13.74v-13.74h3.86v20.57h-4.17l-8.29-13.41v13.41H213.1z"/>
		<path class="st0" d="M232.66,163.55v-20.57h15.25v3.48h-11.1v4.56h10.33v3.47h-10.33v5.6h11.49v3.47H232.66z"/>
	</g>
</g>
</svg>
