<?xml version="1.0" encoding="utf-8"?>
<!-- Generator: Adobe Illustrator 28.4.1, SVG Export Plug-In . SVG Version: 6.00 Build 0)  -->
<svg version="1.1" id="Livello_1" xmlns="http://www.w3.org/2000/svg" xmlns:xlink="http://www.w3.org/1999/xlink" x="0px" y="0px"
	 viewBox="0 0 283.46 283.46" style="enable-background:new 0 0 283.46 283.46;" xml:space="preserve">
<style type="text/css">
	.st0{fill:#B2B2B2;}
</style>
<g>
	<path class="st0" d="M239.41,280.49H44.05c-22.65,0-41.08-18.43-41.08-41.08V44.05C2.97,21.4,21.4,2.97,44.05,2.97h195.36
		c22.65,0,41.08,18.43,41.08,41.08v195.36C280.49,262.06,262.06,280.49,239.41,280.49z M44.05,8.53
		c-19.58,0-35.52,15.93-35.52,35.52v195.36c0,19.58,15.93,35.52,35.52,35.52h195.36c19.58,0,35.52-15.93,35.52-35.52V44.05
		c0-19.58-15.93-35.52-35.52-35.52H44.05z"/>
</g>
<g>
	<path class="st0" d="M239.97,269.7H43.49c-16.39,0-29.72-13.33-29.72-29.72V43.49c0-16.39,13.33-29.72,29.72-29.72h196.49
		c16.38,0,29.72,13.33,29.72,29.72v196.49C269.7,256.36,256.36,269.7,239.97,269.7z M43.49,16.61c-14.82,0-26.88,12.06-26.88,26.88
		v196.49c0,14.82,12.06,26.88,26.88,26.88h196.48c14.83,0,26.89-12.06,26.89-26.88V43.49c0-14.82-12.06-26.88-26.88-26.88H43.49z"/>
</g>
<g>
	<g>
		<path class="st0" d="M89.67,113.18h4.15v11.14c0,1.77,0.05,2.91,0.15,3.44c0.18,0.84,0.6,1.52,1.27,2.03
			c0.67,0.51,1.58,0.76,2.74,0.76c1.18,0,2.07-0.24,2.67-0.72c0.6-0.48,0.96-1.07,1.08-1.77c0.12-0.7,0.18-1.87,0.18-3.49v-11.38
			h4.15v10.8c0,2.47-0.11,4.21-0.34,5.23c-0.22,1.02-0.64,1.88-1.24,2.58s-1.41,1.26-2.42,1.68c-1.01,0.42-2.33,0.62-3.96,0.62
			c-1.96,0-3.45-0.23-4.47-0.68c-1.02-0.45-1.82-1.04-2.41-1.77c-0.59-0.72-0.98-1.48-1.17-2.28c-0.27-1.18-0.41-2.92-0.41-5.22
			V113.18z"/>
		<path class="st0" d="M113.73,133.75v-17.09h-6.1v-3.48h16.35v3.48h-6.09v17.09H113.73z"/>
		<path class="st0" d="M125.3,133.75v-20.57h15.25v3.48h-11.1v4.56h10.33v3.47h-10.33v5.6h11.49v3.47H125.3z"/>
		<path class="st0" d="M143.16,133.75v-20.57h4.04l8.42,13.74v-13.74h3.86v20.57h-4.17l-8.29-13.41v13.41H143.16z"/>
		<path class="st0" d="M160.73,133.75V130l10.8-13.34h-9.58v-3.48h15.05v3.23l-11.27,13.88h11.7v3.47H160.73z"/>
		<path class="st0" d="M178.72,133.75v-20.57h15.25v3.48h-11.1v4.56h10.33v3.47h-10.33v5.6h11.49v3.47H178.72z"/>
		<path class="st0" d="M62.17,163.55v-20.4h4.15v16.93h10.33v3.47H62.17z"/>
		<path class="st0" d="M78.23,142.98h4.15v11.14c0,1.77,0.05,2.91,0.15,3.44c0.18,0.84,0.6,1.52,1.27,2.03
			c0.67,0.51,1.58,0.76,2.74,0.76c1.18,0,2.07-0.24,2.67-0.72c0.6-0.48,0.96-1.07,1.08-1.77c0.12-0.7,0.18-1.87,0.18-3.49v-11.38
			h4.15v10.8c0,2.47-0.11,4.21-0.34,5.23s-0.64,1.88-1.24,2.58c-0.6,0.7-1.41,1.26-2.42,1.68c-1.01,0.42-2.33,0.62-3.96,0.62
			c-1.96,0-3.45-0.23-4.47-0.68c-1.01-0.45-1.82-1.04-2.41-1.77c-0.59-0.72-0.98-1.48-1.16-2.28c-0.27-1.18-0.41-2.92-0.41-5.22
			V142.98z"/>
		<path class="st0" d="M110.82,155.98l4.03,1.28c-0.62,2.25-1.64,3.91-3.08,5c-1.44,1.09-3.26,1.63-5.46,1.63
			c-2.73,0-4.98-0.93-6.74-2.8c-1.76-1.87-2.64-4.42-2.64-7.65c0-3.42,0.88-6.08,2.65-7.98c1.77-1.89,4.09-2.84,6.97-2.84
			c2.52,0,4.56,0.74,6.13,2.23c0.94,0.88,1.64,2.14,2.11,3.79l-4.11,0.98c-0.24-1.07-0.75-1.91-1.52-2.53
			c-0.77-0.62-1.71-0.93-2.81-0.93c-1.52,0-2.76,0.55-3.71,1.64s-1.42,2.87-1.42,5.32c0,2.6,0.47,4.45,1.4,5.56s2.15,1.66,3.65,1.66
			c1.1,0,2.05-0.35,2.85-1.05C109.9,158.59,110.47,157.49,110.82,155.98z"/>
		<path class="st0" d="M117.06,163.55v-20.57h15.25v3.48h-11.1v4.56h10.33v3.47h-10.33v5.6h11.49v3.47H117.06z"/>
		<path class="st0" d="M141.51,163.55v-20.57h15.25v3.48h-11.1v4.56h10.33v3.47h-10.33v5.6h11.49v3.47H141.51z"/>
		<path class="st0" d="M175.53,155.98v-3.47h8.95v8.19c-0.87,0.84-2.13,1.58-3.78,2.22s-3.32,0.96-5.02,0.96
			c-2.15,0-4.03-0.45-5.63-1.35s-2.8-2.19-3.61-3.87c-0.8-1.68-1.21-3.5-1.21-5.48c0-2.14,0.45-4.05,1.35-5.71
			c0.9-1.66,2.21-2.94,3.94-3.83c1.32-0.68,2.96-1.02,4.92-1.02c2.55,0,4.55,0.54,5.98,1.61c1.44,1.07,2.36,2.55,2.77,4.44
			l-4.12,0.77c-0.29-1.01-0.84-1.81-1.63-2.39c-0.8-0.58-1.8-0.88-3-0.88c-1.81,0-3.26,0.58-4.33,1.73
			c-1.07,1.15-1.61,2.86-1.61,5.12c0,2.44,0.54,4.27,1.63,5.49c1.08,1.22,2.51,1.83,4.26,1.83c0.87,0,1.74-0.17,2.62-0.51
			s1.62-0.76,2.25-1.24v-2.61H175.53z"/>
		<path class="st0" d="M205.5,163.55h-4.52l-1.79-4.67h-8.22l-1.7,4.67h-4.41l8.01-20.57h4.39L205.5,163.55z M197.86,155.41
			l-2.83-7.63l-2.78,7.63H197.86z"/>
		<path class="st0" d="M205.31,156.85l4.04-0.39c0.24,1.36,0.74,2.35,1.48,2.99c0.74,0.64,1.75,0.95,3.01,0.95
			c1.34,0,2.35-0.28,3.02-0.85c0.68-0.57,1.02-1.23,1.02-1.99c0-0.49-0.14-0.9-0.43-1.24s-0.78-0.64-1.49-0.89
			c-0.49-0.17-1.6-0.47-3.33-0.9c-2.23-0.55-3.79-1.23-4.69-2.03c-1.26-1.13-1.89-2.51-1.89-4.14c0-1.05,0.3-2.03,0.89-2.94
			c0.59-0.91,1.45-1.61,2.57-2.08c1.12-0.48,2.47-0.72,4.05-0.72c2.58,0,4.53,0.57,5.83,1.7s1.99,2.64,2.06,4.53l-4.15,0.18
			c-0.18-1.06-0.56-1.82-1.14-2.28c-0.59-0.46-1.46-0.69-2.63-0.69c-1.21,0-2.15,0.25-2.83,0.74c-0.44,0.32-0.66,0.74-0.66,1.28
			c0,0.49,0.21,0.9,0.62,1.25c0.52,0.44,1.8,0.9,3.82,1.38c2.02,0.48,3.52,0.97,4.48,1.48c0.97,0.51,1.73,1.21,2.27,2.09
			s0.82,1.98,0.82,3.28c0,1.18-0.33,2.28-0.98,3.31c-0.65,1.03-1.58,1.79-2.78,2.29s-2.69,0.75-4.48,0.75c-2.6,0-4.6-0.6-5.99-1.8
			C206.41,160.91,205.58,159.15,205.31,156.85z"/>
	</g>
</g>
</svg>
