<?xml version="1.0" encoding="utf-8"?>
<!-- Generator: Adobe Illustrator 28.4.1, SVG Export Plug-In . SVG Version: 6.00 Build 0)  -->
<svg version="1.1" id="Livello_1" xmlns="http://www.w3.org/2000/svg" xmlns:xlink="http://www.w3.org/1999/xlink" x="0px" y="0px"
	 viewBox="0 0 283.46 283.46" style="enable-background:new 0 0 283.46 283.46;" xml:space="preserve">
<style type="text/css">
	.st0{fill:#B2B2B2;}
</style>
<g>
	<path class="st0" d="M239.41,280.49H44.05c-22.65,0-41.08-18.43-41.08-41.08V44.05C2.97,21.4,21.4,2.97,44.05,2.97h195.36
		c22.65,0,41.08,18.43,41.08,41.08v195.36C280.49,262.06,262.06,280.49,239.41,280.49z M44.05,8.53
		c-19.58,0-35.52,15.93-35.52,35.52v195.36c0,19.58,15.93,35.52,35.52,35.52h195.36c19.58,0,35.52-15.93,35.52-35.52V44.05
		c0-19.58-15.93-35.52-35.52-35.52H44.05z"/>
</g>
<g>
	<path class="st0" d="M239.97,269.7H43.49c-16.39,0-29.72-13.33-29.72-29.72V43.49c0-16.39,13.33-29.72,29.72-29.72h196.49
		c16.38,0,29.72,13.33,29.72,29.72v196.49C269.7,256.36,256.36,269.7,239.97,269.7z M43.49,16.61c-14.82,0-26.88,12.06-26.88,26.88
		v196.49c0,14.82,12.06,26.88,26.88,26.88h196.48c14.83,0,26.89-12.06,26.89-26.88V43.49c0-14.82-12.06-26.88-26.88-26.88H43.49z"/>
</g>
<g>
	<g>
		<path class="st0" d="M89.67,98.28h4.15v11.14c0,1.77,0.05,2.91,0.15,3.44c0.18,0.84,0.6,1.52,1.27,2.03s1.58,0.77,2.74,0.77
			c1.18,0,2.07-0.24,2.67-0.72c0.6-0.48,0.96-1.07,1.08-1.78s0.18-1.87,0.18-3.49V98.28h4.15v10.8c0,2.47-0.11,4.21-0.34,5.23
			s-0.64,1.88-1.24,2.58s-1.41,1.26-2.42,1.68s-2.33,0.62-3.96,0.62c-1.96,0-3.45-0.23-4.47-0.68c-1.01-0.45-1.82-1.04-2.41-1.77
			s-0.98-1.48-1.16-2.28c-0.27-1.18-0.41-2.92-0.41-5.22V98.28z"/>
		<path class="st0" d="M113.73,118.85v-17.09h-6.1v-3.48h16.35v3.48h-6.09v17.09H113.73z"/>
		<path class="st0" d="M125.3,118.85V98.28h15.25v3.48h-11.1v4.56h10.33v3.46h-10.33v5.6h11.49v3.47H125.3z"/>
		<path class="st0" d="M143.16,118.85V98.28h4.04l8.42,13.74V98.28h3.86v20.57h-4.17l-8.29-13.41v13.41H143.16z"/>
		<path class="st0" d="M160.74,118.85v-3.75l10.8-13.34h-9.58v-3.48h15.05v3.23l-11.27,13.88h11.7v3.47H160.74z"/>
		<path class="st0" d="M178.72,118.85V98.28h15.25v3.48h-11.1v4.56h10.33v3.46h-10.33v5.6h11.49v3.47H178.72z"/>
		<path class="st0" d="M72.94,148.65v-17.09h-6.1v-3.48h16.35v3.48H77.1v17.09H72.94z"/>
		<path class="st0" d="M84.51,148.65v-20.57h15.25v3.48h-11.1v4.56h10.33v3.46H88.67v5.6h11.49v3.47H84.51z"/>
		<path class="st0" d="M102.44,148.65v-20.4h4.15v16.93h10.33v3.47H102.44z"/>
		<path class="st0" d="M118.53,148.65v-20.57h15.25v3.48h-11.1v4.56h10.33v3.46h-10.33v5.6h11.49v3.47H118.53z"/>
		<path class="st0" d="M136.38,148.65v-20.57h14.1v3.48h-9.95v4.87h8.59v3.48h-8.59v8.74H136.38z"/>
		<path class="st0" d="M151.71,138.49c0-2.1,0.31-3.85,0.94-5.28c0.47-1.05,1.11-1.99,1.92-2.82c0.81-0.83,1.7-1.45,2.66-1.85
			c1.28-0.54,2.76-0.81,4.43-0.81c3.03,0,5.46,0.94,7.28,2.82c1.82,1.88,2.73,4.49,2.73,7.84c0,3.32-0.9,5.92-2.71,7.79
			c-1.8,1.88-4.22,2.81-7.24,2.81c-3.06,0-5.49-0.93-7.3-2.8C152.61,144.33,151.71,141.76,151.71,138.49z M155.99,138.35
			c0,2.33,0.54,4.09,1.61,5.3c1.08,1.2,2.44,1.8,4.1,1.8c1.66,0,3.01-0.6,4.08-1.79s1.59-2.98,1.59-5.37c0-2.36-0.52-4.12-1.55-5.28
			s-2.41-1.74-4.12-1.74s-3.09,0.59-4.14,1.76S155.99,135.98,155.99,138.35z"/>
		<path class="st0" d="M173.59,148.65v-20.57h4.04l8.42,13.74v-13.74h3.86v20.57h-4.17l-8.29-13.41v13.41H173.59z"/>
		<path class="st0" d="M192.82,148.65v-20.57h4.15v20.57H192.82z"/>
		<path class="st0" d="M218.13,148.65h-4.52l-1.8-4.67h-8.22l-1.7,4.67h-4.41l8.01-20.57h4.39L218.13,148.65z M210.49,140.51
			l-2.83-7.63l-2.78,7.63H210.49z"/>
		<path class="st0" d="M91.24,178.45v-20.57h6.22l3.73,14.03l3.69-14.03h6.23v20.57h-3.86v-16.19l-4.08,16.19h-4l-4.07-16.19v16.19
			H91.24z"/>
		<path class="st0" d="M113.04,168.29c0-2.09,0.31-3.85,0.94-5.28c0.47-1.05,1.11-1.99,1.92-2.82c0.81-0.83,1.7-1.45,2.66-1.85
			c1.28-0.54,2.76-0.81,4.43-0.81c3.03,0,5.46,0.94,7.28,2.82c1.82,1.88,2.73,4.5,2.73,7.84c0,3.32-0.9,5.92-2.71,7.79
			c-1.81,1.88-4.22,2.81-7.24,2.81c-3.06,0-5.49-0.93-7.3-2.8C113.94,174.13,113.04,171.56,113.04,168.29z M117.32,168.15
			c0,2.33,0.54,4.1,1.61,5.3c1.08,1.2,2.44,1.8,4.1,1.8c1.65,0,3.01-0.6,4.08-1.79c1.06-1.19,1.59-2.98,1.59-5.37
			c0-2.36-0.52-4.12-1.55-5.28c-1.03-1.16-2.41-1.74-4.12-1.74c-1.71,0-3.09,0.59-4.14,1.76S117.32,165.78,117.32,168.15z"/>
		<path class="st0" d="M134.9,157.88h8.22c1.63,0,2.84,0.07,3.64,0.2c0.8,0.14,1.51,0.42,2.15,0.85c0.63,0.43,1.16,1,1.58,1.72
			c0.42,0.71,0.63,1.52,0.63,2.41c0,0.96-0.26,1.85-0.78,2.65c-0.52,0.8-1.22,1.41-2.11,1.81c1.25,0.37,2.22,0.99,2.89,1.87
			c0.67,0.88,1.01,1.91,1.01,3.1c0,0.94-0.22,1.85-0.65,2.73c-0.43,0.88-1.03,1.59-1.78,2.12c-0.75,0.53-1.68,0.85-2.79,0.97
			c-0.69,0.08-2.36,0.12-5.01,0.14h-7V157.88z M139.05,161.3v4.76h2.72c1.62,0,2.62-0.02,3.02-0.07c0.71-0.08,1.27-0.33,1.68-0.74
			s0.61-0.94,0.61-1.61c0-0.63-0.18-1.15-0.53-1.55c-0.35-0.4-0.87-0.64-1.56-0.72c-0.41-0.05-1.59-0.07-3.55-0.07H139.05z
			 M139.05,169.48v5.5h3.84c1.5,0,2.45-0.04,2.85-0.13c0.62-0.11,1.12-0.38,1.51-0.82c0.39-0.44,0.58-1.02,0.58-1.75
			c0-0.62-0.15-1.14-0.45-1.57s-0.73-0.74-1.3-0.94c-0.57-0.2-1.79-0.29-3.68-0.29H139.05z"/>
		<path class="st0" d="M154.16,178.45v-20.57h4.15v20.57H154.16z"/>
		<path class="st0" d="M161.03,178.45v-20.4h4.15v16.94h10.33v3.46H161.03z"/>
		<path class="st0" d="M177.12,178.45v-20.57h15.25v3.48h-11.1v4.56h10.33v3.47h-10.33v5.6h11.49v3.46H177.12z"/>
	</g>
</g>
</svg>
