<?xml version="1.0" encoding="utf-8"?>
<!-- Generator: Adobe Illustrator 28.4.1, SVG Export Plug-In . SVG Version: 6.00 Build 0)  -->
<svg version="1.1" id="Livello_1" xmlns="http://www.w3.org/2000/svg" xmlns:xlink="http://www.w3.org/1999/xlink" x="0px" y="0px"
	 viewBox="0 0 283.46 283.46" style="enable-background:new 0 0 283.46 283.46;" xml:space="preserve">
<style type="text/css">
	.st0{fill:#010045;}
</style>
<g>
	<path class="st0" d="M239.41,280.49H44.05c-22.65,0-41.08-18.43-41.08-41.08V44.05C2.97,21.4,21.4,2.97,44.05,2.97h195.36
		c22.65,0,41.08,18.43,41.08,41.08v195.36C280.49,262.06,262.06,280.49,239.41,280.49z M44.05,8.53
		c-19.58,0-35.52,15.93-35.52,35.52v195.36c0,19.58,15.93,35.52,35.52,35.52h195.36c19.58,0,35.52-15.93,35.52-35.52V44.05
		c0-19.58-15.93-35.52-35.52-35.52H44.05z"/>
</g>
<g>
	<path class="st0" d="M239.97,269.7H43.49c-16.39,0-29.72-13.33-29.72-29.72V43.49c0-16.39,13.33-29.72,29.72-29.72h196.49
		c16.38,0,29.72,13.33,29.72,29.72v196.49C269.7,256.36,256.36,269.7,239.97,269.7z M43.49,16.61c-14.82,0-26.88,12.06-26.88,26.88
		v196.49c0,14.82,12.06,26.88,26.88,26.88h196.48c14.83,0,26.89-12.06,26.89-26.88V43.49c0-14.82-12.06-26.88-26.88-26.88H43.49z"/>
</g>
<g>
	<path class="st0" d="M89.7,98.28h4.15v11.14c0,1.77,0.05,2.91,0.15,3.44c0.18,0.84,0.6,1.52,1.27,2.03
		c0.67,0.51,1.58,0.76,2.74,0.76c1.18,0,2.07-0.24,2.67-0.72c0.6-0.48,0.96-1.07,1.08-1.77c0.12-0.7,0.18-1.87,0.18-3.49V98.28h4.15
		v10.8c0,2.47-0.11,4.21-0.34,5.23c-0.22,1.02-0.64,1.88-1.24,2.58s-1.41,1.26-2.42,1.68c-1.01,0.42-2.33,0.62-3.96,0.62
		c-1.96,0-3.45-0.23-4.47-0.68c-1.02-0.45-1.82-1.04-2.41-1.77c-0.59-0.72-0.98-1.48-1.17-2.28c-0.27-1.18-0.41-2.92-0.41-5.22
		V98.28z"/>
	<path class="st0" d="M113.76,118.85v-17.09h-6.1v-3.48H124v3.48h-6.09v17.09H113.76z"/>
	<path class="st0" d="M125.33,118.85V98.28h15.25v3.48h-11.1v4.56h10.33v3.47h-10.33v5.6h11.49v3.47H125.33z"/>
	<path class="st0" d="M143.19,118.85V98.28h4.04l8.42,13.74V98.28h3.86v20.57h-4.17l-8.29-13.41v13.41H143.19z"/>
	<path class="st0" d="M160.77,118.85v-3.75l10.8-13.34h-9.58v-3.48h15.05v3.23l-11.27,13.88h11.7v3.47H160.77z"/>
	<path class="st0" d="M178.75,118.85V98.28H194v3.48h-11.1v4.56h10.33v3.47H182.9v5.6h11.49v3.47H178.75z"/>
	<path class="st0" d="M69.12,148.65v-17.09h-6.1v-3.48h16.35v3.48h-6.09v17.09H69.12z"/>
	<path class="st0" d="M80.69,148.65v-20.57h15.25v3.48h-11.1v4.56h10.33v3.47H84.85v5.6h11.49v3.47H80.69z"/>
	<path class="st0" d="M98.62,148.65v-20.4h4.15v16.93h10.33v3.47H98.62z"/>
	<path class="st0" d="M114.71,148.65v-20.57h15.25v3.48h-11.1v4.56h10.33v3.47h-10.33v5.6h11.49v3.47H114.71z"/>
	<path class="st0" d="M132.56,148.65v-20.57h14.1v3.48h-9.95v4.87h8.59v3.48h-8.59v8.74H132.56z"/>
	<path class="st0" d="M147.89,138.49c0-2.09,0.31-3.85,0.94-5.28c0.47-1.05,1.11-1.99,1.91-2.82c0.81-0.83,1.7-1.45,2.66-1.85
		c1.28-0.54,2.76-0.81,4.43-0.81c3.03,0,5.46,0.94,7.28,2.82c1.82,1.88,2.73,4.5,2.73,7.84c0,3.32-0.9,5.92-2.71,7.79
		c-1.8,1.88-4.22,2.81-7.24,2.81c-3.06,0-5.49-0.93-7.3-2.8S147.89,141.76,147.89,138.49z M152.17,138.35c0,2.33,0.54,4.09,1.61,5.3
		c1.07,1.2,2.44,1.8,4.1,1.8c1.66,0,3.02-0.6,4.08-1.79c1.06-1.19,1.59-2.98,1.59-5.37c0-2.36-0.52-4.12-1.55-5.28
		c-1.03-1.16-2.41-1.74-4.12-1.74c-1.71,0-3.09,0.59-4.14,1.76C152.69,134.21,152.17,135.98,152.17,138.35z"/>
	<path class="st0" d="M169.77,148.65v-20.57h4.04l8.42,13.74v-13.74h3.86v20.57h-4.17l-8.29-13.41v13.41H169.77z"/>
	<path class="st0" d="M189,148.65v-20.57h4.15v20.57H189z"/>
	<path class="st0" d="M214.31,148.65h-4.52l-1.8-4.67h-8.22l-1.7,4.67h-4.4l8.01-20.57h4.39L214.31,148.65z M206.67,140.51
		l-2.83-7.63l-2.78,7.63H206.67z"/>
	<path class="st0" d="M215.04,144.7h3.94v2.82c0,1.14-0.1,2.04-0.29,2.7c-0.2,0.66-0.57,1.25-1.12,1.78
		c-0.55,0.52-1.24,0.93-2.08,1.23l-0.77-1.63c0.79-0.26,1.36-0.62,1.7-1.08s0.51-1.08,0.53-1.88h-1.91V144.7z"/>
	<path class="st0" d="M45.51,178.45v-20.57h14.1v3.48h-9.95v4.87h8.59v3.48h-8.59v8.74H45.51z"/>
	<path class="st0" d="M61.56,178.45v-20.57h4.15v20.57H61.56z"/>
	<path class="st0" d="M68.33,157.88h8.22c1.63,0,2.84,0.07,3.64,0.2c0.8,0.14,1.51,0.42,2.15,0.85c0.63,0.43,1.16,1,1.58,1.72
		s0.63,1.52,0.63,2.41c0,0.96-0.26,1.85-0.78,2.65c-0.52,0.8-1.22,1.41-2.11,1.81c1.25,0.36,2.22,0.99,2.89,1.87
		c0.67,0.88,1.01,1.91,1.01,3.1c0,0.94-0.22,1.84-0.65,2.73c-0.43,0.88-1.03,1.59-1.78,2.12s-1.68,0.85-2.79,0.97
		c-0.69,0.08-2.36,0.12-5.01,0.14h-7V157.88z M72.48,161.3v4.76h2.72c1.62,0,2.62-0.02,3.02-0.07c0.71-0.08,1.27-0.33,1.68-0.74
		c0.41-0.41,0.61-0.94,0.61-1.61c0-0.64-0.17-1.15-0.53-1.55c-0.35-0.4-0.87-0.64-1.56-0.72c-0.41-0.05-1.6-0.07-3.55-0.07H72.48z
		 M72.48,169.48v5.5h3.84c1.5,0,2.45-0.04,2.85-0.13c0.62-0.11,1.12-0.39,1.51-0.82c0.39-0.43,0.58-1.02,0.58-1.75
		c0-0.62-0.15-1.14-0.45-1.57c-0.3-0.43-0.73-0.74-1.3-0.94c-0.57-0.2-1.79-0.29-3.68-0.29H72.48z"/>
	<path class="st0" d="M87.73,178.45v-20.57h8.74c2.2,0,3.8,0.19,4.79,0.55s1.79,1.03,2.39,1.97c0.6,0.94,0.9,2.02,0.9,3.24
		c0,1.54-0.45,2.82-1.36,3.82c-0.91,1.01-2.26,1.64-4.07,1.9c0.9,0.52,1.64,1.1,2.22,1.73c0.58,0.63,1.37,1.74,2.36,3.34l2.51,4.01
		h-4.97l-3-4.48c-1.07-1.6-1.8-2.61-2.19-3.02s-0.81-0.7-1.25-0.86c-0.44-0.15-1.14-0.23-2.09-0.23h-0.84v8.59H87.73z M91.88,166.58
		h3.07c1.99,0,3.24-0.08,3.73-0.25c0.5-0.17,0.88-0.46,1.17-0.87c0.28-0.41,0.42-0.93,0.42-1.54c0-0.69-0.18-1.25-0.55-1.68
		c-0.37-0.42-0.89-0.69-1.56-0.81c-0.34-0.05-1.35-0.07-3.03-0.07h-3.24V166.58z"/>
	<path class="st0" d="M125.67,178.45h-4.52l-1.8-4.67h-8.22l-1.7,4.67h-4.41l8.01-20.57h4.39L125.67,178.45z M118.02,170.31
		l-2.83-7.63l-2.78,7.63H118.02z"/>
	<path class="st0" d="M132.08,178.45v-20.57h15.25v3.48h-11.1v4.56h10.33v3.47h-10.33v5.6h11.49v3.47H132.08z"/>
	<path class="st0" d="M156.53,178.45v-20.57h6.66c2.53,0,4.17,0.1,4.94,0.31c1.18,0.31,2.16,0.98,2.96,2.01
		c0.79,1.03,1.19,2.37,1.19,4.01c0,1.26-0.23,2.32-0.69,3.18c-0.46,0.86-1.04,1.54-1.75,2.03c-0.71,0.49-1.43,0.82-2.15,0.97
		c-0.99,0.2-2.43,0.29-4.31,0.29h-2.71v7.76H156.53z M160.69,161.36v5.84h2.27c1.64,0,2.73-0.11,3.28-0.32
		c0.55-0.21,0.98-0.55,1.3-1.01c0.31-0.46,0.47-0.99,0.47-1.6c0-0.75-0.22-1.37-0.66-1.85s-1-0.79-1.67-0.91
		c-0.49-0.09-1.49-0.14-2.99-0.14H160.69z"/>
	<path class="st0" d="M190.76,178.45h-4.52l-1.8-4.67h-8.22l-1.7,4.67h-4.4l8.01-20.57h4.39L190.76,178.45z M183.12,170.31
		l-2.83-7.63l-2.78,7.63H183.12z"/>
	<path class="st0" d="M194.38,178.45v-8.66l-7.54-11.91h4.87l4.84,8.14l4.74-8.14h4.79l-7.56,11.94v8.63H194.38z"/>
	<path class="st0" d="M211.42,178.45v-17.09h-6.1v-3.48h16.35v3.48h-6.09v17.09H211.42z"/>
	<path class="st0" d="M228.24,178.45l-7.35-20.57h4.5l5.21,15.22l5.04-15.22h4.41l-7.37,20.57H228.24z"/>
</g>
</svg>
