<?xml version="1.0" encoding="utf-8"?>
<!-- Generator: Adobe Illustrator 24.0.0, SVG Export Plug-In . SVG Version: 6.00 Build 0)  -->
<svg version="1.1" id="Livello_1" xmlns="http://www.w3.org/2000/svg" xmlns:xlink="http://www.w3.org/1999/xlink" x="0px" y="0px"
	 viewBox="0 0 283.46 283.46" style="enable-background:new 0 0 283.46 283.46;" xml:space="preserve">
<style type="text/css">
	.st0{fill:#010045;}
</style>
<g>
	<path class="st0" d="M239.41,280.49H44.05c-22.65,0-41.08-18.43-41.08-41.08V44.05C2.97,21.4,21.4,2.97,44.05,2.97h195.36
		c22.65,0,41.08,18.43,41.08,41.08v195.36C280.49,262.06,262.06,280.49,239.41,280.49z M44.05,8.53
		c-19.58,0-35.52,15.93-35.52,35.52v195.36c0,19.58,15.93,35.52,35.52,35.52h195.36c19.58,0,35.52-15.93,35.52-35.52V44.05
		c0-19.58-15.93-35.52-35.52-35.52H44.05z"/>
</g>
<g>
	<path class="st0" d="M239.97,269.7H43.49c-16.39,0-29.72-13.33-29.72-29.72V43.49c0-16.39,13.33-29.72,29.72-29.72h196.49
		c16.38,0,29.72,13.33,29.72,29.72v196.49C269.7,256.36,256.36,269.7,239.97,269.7z M43.49,16.61c-14.82,0-26.88,12.06-26.88,26.88
		v196.49c0,14.82,12.06,26.88,26.88,26.88h196.48c14.83,0,26.89-12.06,26.89-26.88V43.49c0-14.82-12.06-26.88-26.88-26.88H43.49z"/>
</g>
<g>
	<path class="st0" d="M22.67,118.85V98.28h8.74c2.2,0,3.79,0.19,4.79,0.55s1.79,1.03,2.39,1.97c0.6,0.94,0.9,2.02,0.9,3.24
		c0,1.54-0.45,2.82-1.36,3.82c-0.91,1.01-2.26,1.64-4.07,1.9c0.9,0.52,1.64,1.1,2.22,1.72c0.58,0.63,1.37,1.74,2.37,3.34l2.51,4.01
		H36.2l-3-4.48c-1.07-1.6-1.79-2.61-2.19-3.02c-0.39-0.42-0.81-0.7-1.25-0.86c-0.44-0.15-1.14-0.23-2.09-0.23h-0.84v8.59H22.67z
		 M26.82,106.98h3.07c1.99,0,3.24-0.08,3.73-0.25s0.88-0.46,1.16-0.87c0.28-0.41,0.42-0.93,0.42-1.54c0-0.69-0.19-1.25-0.55-1.68
		s-0.89-0.7-1.56-0.81c-0.34-0.05-1.35-0.07-3.03-0.07h-3.24V106.98z"/>
	<path class="st0" d="M41.73,118.85V98.28h4.15v20.57H41.73z"/>
	<path class="st0" d="M48.33,118.85V98.28h4.04l8.42,13.74V98.28h3.86v20.57h-4.17l-8.29-13.41v13.41H48.33z"/>
	<path class="st0" d="M67.53,118.85V98.28h4.04l8.42,13.74V98.28h3.86v20.57h-4.17l-8.29-13.41v13.41H67.53z"/>
	<path class="st0" d="M85.84,108.69c0-2.1,0.31-3.85,0.94-5.28c0.47-1.05,1.11-1.99,1.92-2.82s1.7-1.45,2.66-1.85
		c1.28-0.54,2.76-0.81,4.43-0.81c3.03,0,5.46,0.94,7.28,2.82c1.82,1.88,2.73,4.49,2.73,7.84c0,3.32-0.9,5.92-2.71,7.79
		c-1.81,1.88-4.22,2.81-7.24,2.81c-3.06,0-5.49-0.93-7.3-2.8C86.75,114.53,85.84,111.96,85.84,108.69z M90.12,108.55
		c0,2.33,0.54,4.09,1.61,5.3c1.08,1.2,2.44,1.8,4.1,1.8c1.66,0,3.01-0.6,4.08-1.79c1.06-1.19,1.59-2.98,1.59-5.37
		c0-2.36-0.52-4.12-1.55-5.28c-1.03-1.16-2.41-1.74-4.12-1.74c-1.71,0-3.09,0.59-4.14,1.76C90.65,104.41,90.12,106.18,90.12,108.55z
		"/>
	<path class="st0" d="M112.73,118.85l-7.35-20.57h4.5l5.21,15.22l5.04-15.22h4.41l-7.37,20.57H112.73z"/>
	<path class="st0" d="M124.97,118.85V98.28h4.15v20.57H124.97z"/>
	<path class="st0" d="M137.96,118.85V98.28h6.66c2.53,0,4.17,0.1,4.94,0.31c1.18,0.31,2.16,0.98,2.96,2.01
		c0.79,1.04,1.19,2.37,1.19,4.01c0,1.26-0.23,2.32-0.69,3.19s-1.04,1.54-1.75,2.03c-0.71,0.49-1.43,0.82-2.15,0.97
		c-0.99,0.2-2.43,0.29-4.31,0.29h-2.71v7.76H137.96z M142.12,101.76v5.84h2.27c1.64,0,2.73-0.11,3.28-0.32
		c0.55-0.21,0.98-0.55,1.3-1.01c0.31-0.46,0.47-0.99,0.47-1.6c0-0.75-0.22-1.37-0.66-1.85s-1-0.79-1.67-0.91
		c-0.49-0.09-1.49-0.14-2.99-0.14H142.12z"/>
	<path class="st0" d="M171.99,118.85h-4.52l-1.79-4.67h-8.22l-1.7,4.67h-4.41l8.01-20.57h4.39L171.99,118.85z M164.35,110.71
		l-2.83-7.63l-2.78,7.63H164.35z"/>
	<path class="st0" d="M175.14,118.85v-17.09h-6.1v-3.48h16.35v3.48h-6.09v17.09H175.14z"/>
	<path class="st0" d="M186.51,118.85V98.28h15.25v3.48h-11.1v4.56h10.33v3.46h-10.33v5.6h11.49v3.47H186.51z"/>
	<path class="st0" d="M204.17,118.85V98.28h4.04l8.42,13.74V98.28h3.86v20.57h-4.17l-8.29-13.41v13.41H204.17z"/>
	<path class="st0" d="M227.96,118.85v-17.09h-6.1v-3.48h16.35v3.48h-6.09v17.09H227.96z"/>
	<path class="st0" d="M239.33,118.85V98.28h15.25v3.48h-11.1v4.56h10.33v3.46h-10.33v5.6h11.49v3.47H239.33z"/>
	<path class="st0" d="M256.81,114.9h3.94v2.82c0,1.14-0.1,2.04-0.29,2.7c-0.2,0.66-0.57,1.25-1.12,1.78
		c-0.55,0.52-1.24,0.93-2.08,1.23l-0.77-1.63c0.79-0.26,1.36-0.62,1.7-1.08c0.34-0.46,0.51-1.08,0.53-1.88h-1.91V114.9z"/>
	<path class="st0" d="M99.42,148.65l-7.35-20.57h4.5l5.21,15.22l5.04-15.22h4.41l-7.37,20.57H99.42z"/>
	<path class="st0" d="M111.67,148.65v-20.57h4.15v20.57H111.67z"/>
	<path class="st0" d="M117.17,141.95l4.04-0.39c0.24,1.36,0.74,2.35,1.48,2.99c0.74,0.64,1.75,0.96,3.01,0.96
		c1.34,0,2.35-0.28,3.02-0.85s1.02-1.23,1.02-1.99c0-0.48-0.14-0.9-0.43-1.24s-0.78-0.64-1.49-0.89c-0.49-0.17-1.6-0.47-3.33-0.9
		c-2.23-0.55-3.79-1.23-4.69-2.04c-1.26-1.13-1.89-2.51-1.89-4.14c0-1.05,0.3-2.03,0.89-2.94s1.45-1.61,2.57-2.08
		c1.12-0.48,2.47-0.71,4.05-0.71c2.58,0,4.53,0.57,5.83,1.7c1.3,1.13,1.99,2.64,2.06,4.53l-4.15,0.18
		c-0.18-1.06-0.56-1.82-1.14-2.28c-0.58-0.46-1.46-0.69-2.63-0.69c-1.21,0-2.15,0.25-2.83,0.74c-0.44,0.32-0.66,0.74-0.66,1.28
		c0,0.49,0.21,0.9,0.62,1.25c0.52,0.44,1.8,0.9,3.82,1.38c2.02,0.48,3.52,0.97,4.48,1.48c0.97,0.51,1.73,1.21,2.27,2.09
		c0.55,0.88,0.82,1.98,0.82,3.28c0,1.18-0.33,2.28-0.98,3.31s-1.58,1.79-2.78,2.29s-2.69,0.75-4.48,0.75c-2.6,0-4.6-0.6-5.99-1.8
		C118.27,146.01,117.44,144.25,117.17,141.95z"/>
	<path class="st0" d="M135.81,128.08h4.15v11.14c0,1.77,0.05,2.91,0.15,3.44c0.18,0.84,0.6,1.52,1.27,2.03
		c0.67,0.51,1.58,0.77,2.74,0.77c1.18,0,2.07-0.24,2.67-0.72c0.6-0.48,0.96-1.07,1.08-1.78s0.18-1.87,0.18-3.49v-11.38h4.15v10.8
		c0,2.47-0.11,4.21-0.34,5.23s-0.64,1.88-1.24,2.58s-1.41,1.26-2.42,1.68c-1.01,0.42-2.33,0.62-3.96,0.62
		c-1.96,0-3.45-0.23-4.47-0.68c-1.02-0.45-1.82-1.04-2.41-1.77c-0.59-0.72-0.98-1.48-1.17-2.28c-0.27-1.18-0.41-2.92-0.41-5.22
		V128.08z"/>
	<path class="st0" d="M155.05,148.65v-20.57h8.74c2.2,0,3.79,0.19,4.79,0.55s1.79,1.03,2.39,1.97c0.6,0.94,0.9,2.02,0.9,3.24
		c0,1.54-0.46,2.82-1.36,3.82c-0.91,1.01-2.26,1.64-4.07,1.9c0.9,0.52,1.64,1.1,2.22,1.72c0.58,0.63,1.37,1.74,2.37,3.34l2.51,4.01
		h-4.97l-3-4.48c-1.07-1.6-1.79-2.61-2.19-3.02c-0.39-0.42-0.81-0.7-1.25-0.86s-1.14-0.23-2.09-0.23h-0.84v8.59H155.05z
		 M159.21,136.78h3.07c1.99,0,3.24-0.08,3.73-0.25s0.88-0.46,1.16-0.87c0.28-0.41,0.42-0.93,0.42-1.54c0-0.69-0.19-1.25-0.55-1.68
		s-0.89-0.7-1.56-0.81c-0.34-0.05-1.35-0.07-3.03-0.07h-3.24V136.78z"/>
	<path class="st0" d="M174.24,148.65v-20.57h15.25v3.48h-11.1v4.56h10.33v3.46h-10.33v5.6h11.49v3.47H174.24z"/>
	<path class="st0" d="M51.2,178.45v-20.57h15.25v3.48h-11.1v4.56h10.33v3.47H55.36v5.6h11.49v3.46H51.2z"/>
	<path class="st0" d="M88.41,170.88l4.03,1.28c-0.62,2.24-1.64,3.91-3.08,5s-3.26,1.63-5.46,1.63c-2.73,0-4.98-0.93-6.73-2.8
		c-1.76-1.87-2.64-4.42-2.64-7.65c0-3.42,0.88-6.08,2.65-7.98s4.09-2.84,6.97-2.84c2.52,0,4.56,0.74,6.13,2.23
		c0.94,0.88,1.64,2.14,2.1,3.79l-4.11,0.98c-0.24-1.07-0.75-1.91-1.52-2.53s-1.71-0.93-2.81-0.93c-1.52,0-2.76,0.55-3.71,1.64
		c-0.95,1.1-1.42,2.87-1.42,5.32c0,2.6,0.47,4.45,1.4,5.56c0.93,1.1,2.15,1.65,3.65,1.65c1.1,0,2.05-0.35,2.85-1.05
		C87.49,173.49,88.06,172.39,88.41,170.88z"/>
	<path class="st0" d="M94.45,178.45v-20.57h15.25v3.48H98.6v4.56h10.33v3.47H98.6v5.6h11.49v3.46H94.45z"/>
	<path class="st0" d="M112.08,178.45v-20.57h8.74c2.2,0,3.8,0.19,4.79,0.55s1.79,1.03,2.39,1.97c0.6,0.95,0.9,2.03,0.9,3.24
		c0,1.54-0.45,2.82-1.36,3.82c-0.91,1.01-2.26,1.64-4.07,1.9c0.9,0.53,1.64,1.1,2.22,1.73s1.37,1.74,2.36,3.34l2.51,4.01h-4.97
		l-3-4.47c-1.07-1.6-1.8-2.61-2.19-3.02s-0.81-0.7-1.25-0.86c-0.44-0.15-1.14-0.23-2.09-0.23h-0.84v8.59H112.08z M116.23,166.58
		h3.07c1.99,0,3.24-0.08,3.73-0.25c0.5-0.17,0.88-0.46,1.17-0.87s0.42-0.93,0.42-1.54c0-0.69-0.18-1.25-0.55-1.68
		c-0.37-0.42-0.89-0.69-1.56-0.81c-0.34-0.04-1.35-0.07-3.03-0.07h-3.24V166.58z"/>
	<path class="st0" d="M135.89,178.45v-17.09h-6.1v-3.48h16.34v3.48h-6.09v17.09H135.89z"/>
	<path class="st0" d="M147.13,178.45v-20.57h4.15v20.57H147.13z"/>
	<path class="st0" d="M153.72,178.45v-20.57h14.1v3.48h-9.95v4.87h8.59v3.48h-8.59v8.74H153.72z"/>
	<path class="st0" d="M169.57,178.45v-20.57h4.15v20.57H169.57z"/>
	<path class="st0" d="M189.29,170.88l4.03,1.28c-0.62,2.24-1.64,3.91-3.08,5s-3.26,1.63-5.46,1.63c-2.73,0-4.98-0.93-6.73-2.8
		c-1.76-1.87-2.64-4.42-2.64-7.65c0-3.42,0.88-6.08,2.65-7.98s4.09-2.84,6.97-2.84c2.52,0,4.56,0.74,6.13,2.23
		c0.94,0.88,1.64,2.14,2.11,3.79l-4.11,0.98c-0.24-1.07-0.75-1.91-1.52-2.53s-1.71-0.93-2.81-0.93c-1.52,0-2.76,0.55-3.71,1.64
		c-0.95,1.1-1.42,2.87-1.42,5.32c0,2.6,0.47,4.45,1.4,5.56c0.94,1.1,2.15,1.65,3.65,1.65c1.1,0,2.05-0.35,2.85-1.05
		C188.37,173.49,188.94,172.39,189.29,170.88z"/>
	<path class="st0" d="M213.88,178.45h-4.52l-1.8-4.67h-8.22l-1.7,4.67h-4.4l8.01-20.57h4.39L213.88,178.45z M206.23,170.31
		l-2.83-7.63l-2.78,7.63H206.23z"/>
	<path class="st0" d="M217.02,178.45v-17.09h-6.1v-3.48h16.35v3.48h-6.09v17.09H217.02z"/>
	<path class="st0" d="M228.27,178.45v-20.57h4.15v20.57H228.27z"/>
</g>
</svg>
